<svg width="500" height="500" viewBox="0 0 500 500" fill="none" xmlns="http://www.w3.org/2000/svg">
<path d="M123.677 116.184C122.872 116.184 122.057 116.155 121.255 116.097L121.314 115.266C122.756 115.369 124.222 115.377 125.665 115.291L125.715 116.122C125.036 116.163 124.356 116.184 123.677 116.184V116.184ZM130.138 115.562L129.98 114.743C131.403 114.466 132.808 114.096 134.183 113.636L134.448 114.426C133.038 114.898 131.598 115.277 130.138 115.562V115.562ZM116.838 115.492L116.754 115.475C115.291 115.173 113.85 114.776 112.438 114.288L112.711 113.501C114.083 113.975 115.484 114.361 116.906 114.655L117.001 114.675L116.838 115.492ZM138.574 112.737L138.209 111.987C139.513 111.351 140.775 110.63 141.986 109.83L142.446 110.525C141.204 111.345 139.911 112.084 138.574 112.737V112.737ZM108.33 112.556C106.999 111.888 105.713 111.134 104.482 110.297L104.95 109.608C106.151 110.424 107.405 111.16 108.703 111.811L108.33 112.556ZM145.998 107.83L145.453 107.2C146.55 106.249 147.584 105.227 148.548 104.142L149.171 104.695C148.183 105.808 147.123 106.855 145.998 107.83V107.83ZM100.964 107.552C99.8533 106.561 98.8085 105.499 97.8362 104.372L98.4673 103.828C99.416 104.927 100.435 105.963 101.519 106.93L100.964 107.552V107.552ZM151.907 101.172L151.217 100.705C152.03 99.5017 152.764 98.2462 153.412 96.9467L154.158 97.3184C153.493 98.6507 152.741 99.938 151.907 101.172V101.172ZM95.149 100.814C94.3316 99.5707 93.5958 98.2758 92.9462 96.9373L93.6962 96.5739C94.33 97.8799 95.048 99.1433 95.8456 100.356L95.149 100.814ZM155.881 93.2062L155.093 92.9351C155.557 91.5853 155.934 90.2075 156.223 88.8101L156.238 88.7395L157.055 88.9045L157.04 88.9806C156.743 90.4122 156.356 91.8236 155.881 93.2062V93.2062ZM91.2662 92.8084C90.7971 91.3971 90.4209 89.9566 90.1401 88.4962L90.9584 88.3389C91.2326 89.7636 91.5997 91.1688 92.0573 92.5456L91.2662 92.8084V92.8084ZM157.664 84.4873L156.833 84.4273C156.937 82.9794 156.946 81.5263 156.861 80.0773L157.692 80.0273C157.781 81.5129 157.772 83.0029 157.664 84.4873V84.4873ZM89.589 84.0706C89.5511 83.4172 89.532 82.7629 89.5317 82.1084C89.5317 81.2806 89.5628 80.4406 89.624 79.6106L90.4551 79.6717C90.3954 80.4826 90.3654 81.2953 90.3651 82.1084C90.3651 82.7417 90.384 83.3862 90.4206 84.0223L89.589 84.0706V84.0706ZM156.317 75.7606C156.041 74.3364 155.672 72.9317 155.212 71.5556L156.003 71.2912C156.474 72.7018 156.853 74.1417 157.136 75.6017L156.317 75.7606ZM91.0606 75.3378L90.239 75.1962L90.2445 75.1695C90.5442 73.7209 90.9363 72.293 91.4184 70.8945L92.2062 71.1667C91.7356 72.5312 91.3529 73.9244 91.0606 75.3378V75.3378ZM153.567 67.5295C152.931 66.2246 152.212 64.9623 151.412 63.7506L152.108 63.2917C152.927 64.5339 153.665 65.8277 154.317 67.1651L153.567 67.5295V67.5295ZM93.894 67.1567L93.1484 66.784C93.8153 65.4525 94.5691 64.1663 95.4051 62.934L96.0945 63.4017C95.2792 64.6036 94.5441 65.858 93.894 67.1567V67.1567ZM148.785 60.2823C147.835 59.1846 146.814 58.1498 145.729 57.1845L146.283 56.5617C147.395 57.5509 148.441 58.6115 149.415 59.7367L148.785 60.2823V60.2823ZM98.769 59.9684L98.1467 59.4145C99.1365 58.303 100.198 57.2575 101.324 56.2845L101.868 56.9151C100.77 57.8646 99.7349 58.8845 98.769 59.9684V59.9684ZM142.294 54.5128C141.091 53.6989 139.836 52.9645 138.537 52.3145L138.91 51.569C140.241 52.2349 141.528 52.9877 142.761 53.8223L142.294 54.5128ZM105.339 54.2906L104.881 53.5945C106.123 52.7764 107.418 52.0397 108.756 51.389L109.12 52.1384C107.814 52.7735 106.551 53.4924 105.339 54.2906ZM134.526 50.6306C133.169 50.1635 131.783 49.7835 130.377 49.4928L130.497 48.6667L130.545 48.6767C131.986 48.9746 133.406 49.3643 134.798 49.8434L134.526 50.6306V50.6306ZM113.147 50.4962L112.883 49.7056C114.294 49.2354 115.735 48.8581 117.195 48.5762L117.353 49.3945C115.928 49.6697 114.524 50.0377 113.147 50.4962V50.4962ZM126.02 48.8851C124.572 48.7798 123.118 48.7693 121.669 48.8534L121.62 48.0217C123.106 47.935 124.596 47.9458 126.08 48.054L126.02 48.8851Z" fill="#E2DCE3"/>
<path d="M383.704 392.151L383.703 391.318C385.146 391.315 386.588 391.238 388.023 391.087L388.111 391.916C386.647 392.07 385.176 392.149 383.704 392.151ZM379.296 391.931C377.831 391.782 376.375 391.555 374.934 391.253L375.106 390.437C376.518 390.734 377.945 390.955 379.381 391.102L379.296 391.931ZM392.47 391.223L392.296 390.408C393.707 390.107 395.102 389.732 396.474 389.285L396.732 390.077C395.332 390.533 393.909 390.916 392.47 391.223V391.223ZM370.667 390.121C369.265 389.668 367.889 389.142 366.542 388.546L366.88 387.784C368.199 388.369 369.549 388.884 370.922 389.328L370.667 390.121ZM400.851 388.488L400.511 387.728C401.827 387.138 403.112 386.479 404.361 385.755L404.78 386.476C403.506 387.214 402.195 387.886 400.851 388.488V388.488ZM362.606 386.545C361.33 385.81 360.093 385.008 358.901 384.144L359.39 383.469C360.559 384.317 361.771 385.102 363.022 385.822L362.606 386.545ZM408.475 384.063L407.983 383.39C409.149 382.539 410.269 381.628 411.341 380.66L411.9 381.278C410.807 382.265 409.664 383.195 408.475 384.063V384.063ZM355.467 381.371C354.372 380.387 353.328 379.347 352.34 378.255L352.958 377.696C353.926 378.767 354.95 379.786 356.024 380.75L355.467 381.371V381.371ZM415.016 378.153L414.397 377.597C415.361 376.523 416.269 375.399 417.117 374.231L417.792 374.721C416.927 375.913 416.001 377.058 415.016 378.153V378.153ZM349.553 374.832C348.685 373.643 347.879 372.41 347.139 371.137L347.859 370.718C348.585 371.966 349.375 373.175 350.226 374.341L349.553 374.832ZM420.196 371.017L419.474 370.601C420.195 369.35 420.85 368.063 421.436 366.744L422.198 367.082C421.6 368.428 420.931 369.742 420.196 371.017ZM345.125 367.211C344.522 365.867 343.991 364.493 343.533 363.093L344.326 362.834C344.774 364.206 345.295 365.553 345.886 366.87L345.125 367.211V367.211ZM423.776 362.958L422.983 362.702C423.426 361.329 423.798 359.933 424.095 358.52L424.911 358.692C424.607 360.133 424.228 361.557 423.776 362.958V362.958ZM342.383 358.831C342.076 357.391 341.844 355.936 341.688 354.472L342.517 354.384C342.67 355.819 342.897 357.245 343.198 358.656L342.383 358.831V358.831ZM425.591 354.33L424.762 354.246C424.907 352.833 424.98 351.395 424.98 349.971L425.813 349.923V349.971C425.813 351.423 425.738 352.89 425.591 354.33V354.33ZM342.285 350.065H341.451V349.97C341.451 348.501 341.528 347.018 341.678 345.563L342.507 345.648C342.359 347.084 342.284 348.526 342.285 349.97V350.065V350.065ZM424.752 345.603C424.601 344.168 424.376 342.742 424.076 341.33L424.891 341.156C425.197 342.597 425.427 344.052 425.581 345.516L424.752 345.603V345.603ZM343.179 341.376L342.364 341.203C342.669 339.762 343.049 338.338 343.504 336.937L344.296 337.195C343.851 338.568 343.478 339.963 343.179 341.376V341.376ZM422.955 337.151C422.507 335.779 421.988 334.431 421.399 333.113L422.16 332.773C422.76 334.118 423.29 335.493 423.746 336.893L422.955 337.151V337.151ZM345.847 333.155L345.086 332.815C345.686 331.47 346.356 330.158 347.093 328.883L347.814 329.3C347.092 330.55 346.435 331.836 345.847 333.155V333.155ZM419.43 329.263C418.705 328.015 417.916 326.805 417.066 325.638L417.74 325.148C418.607 326.338 419.412 327.572 420.15 328.845L419.43 329.263V329.263ZM350.174 325.672L349.5 325.181C350.367 323.991 351.295 322.846 352.28 321.752L352.899 322.31C351.933 323.383 351.024 324.505 350.174 325.672V325.672ZM414.338 322.279C413.371 321.208 412.349 320.187 411.276 319.222L411.833 318.602C412.928 319.587 413.97 320.628 414.957 321.721L414.338 322.279V322.279ZM355.959 319.248L355.401 318.63C356.495 317.644 357.639 316.716 358.829 315.849L359.32 316.523C358.153 317.373 357.031 318.283 355.959 319.248V319.248ZM407.913 316.498C406.745 315.65 405.533 314.863 404.283 314.141L404.7 313.419C405.975 314.156 407.211 314.959 408.402 315.824L407.913 316.498V316.498ZM362.945 314.162L362.527 313.441C363.801 312.703 365.113 312.033 366.457 311.433L366.797 312.194C365.479 312.782 364.194 313.439 362.945 314.162V314.162ZM400.428 312.176C399.109 311.589 397.76 311.072 396.387 310.627L396.644 309.834C398.045 310.288 399.421 310.816 400.767 311.415L400.428 312.176ZM370.835 310.641L370.578 309.848C371.978 309.394 373.401 309.012 374.841 308.706L375.015 309.521C373.603 309.821 372.208 310.195 370.835 310.641ZM392.205 309.512C390.792 309.215 389.366 308.992 387.931 308.843L388.016 308.015C389.476 308.165 390.943 308.395 392.377 308.697L392.205 309.512V309.512ZM379.288 308.848L379.202 308.02C380.666 307.868 382.137 307.791 383.609 307.79L383.61 308.623C382.166 308.623 380.712 308.7 379.288 308.848Z" fill="#E2DCE3"/>
<path d="M127.496 399.882L127.495 399.048C128.957 399.047 130.434 398.982 131.885 398.854L131.958 399.684C130.474 399.814 128.985 399.88 127.496 399.882V399.882ZM123.034 399.692C121.55 399.564 120.073 399.372 118.606 399.116L118.749 398.294C120.192 398.546 121.646 398.736 123.105 398.862L123.034 399.692V399.692ZM136.386 399.1L136.241 398.279C137.684 398.025 139.115 397.707 140.531 397.328L140.747 398.133C139.308 398.519 137.853 398.841 136.386 399.1V399.1ZM114.244 398.158C112.805 397.775 111.383 397.329 109.983 396.823L110.267 396.039C111.644 396.538 113.043 396.976 114.458 397.353L114.244 398.158ZM145.007 396.791L144.721 396.007C146.098 395.506 147.452 394.944 148.78 394.324L149.133 395.079C147.783 395.709 146.406 396.28 145.007 396.791V396.791ZM105.855 395.119C104.505 394.491 103.183 393.804 101.893 393.06L102.309 392.338C103.578 393.07 104.879 393.746 106.207 394.364L105.855 395.119V395.119ZM153.093 393.012L152.676 392.29C153.943 391.555 155.179 390.765 156.378 389.922L156.857 390.604C155.638 391.461 154.382 392.264 153.093 393.012V393.012ZM98.1266 390.662C96.9073 389.808 95.7258 388.901 94.5855 387.944L95.1211 387.307C96.2429 388.248 97.4051 389.14 98.6044 389.98L98.1266 390.662V390.662ZM160.396 387.876L159.859 387.239C160.968 386.304 162.037 385.323 163.063 384.297L163.389 384.561L163.659 384.879C162.615 385.924 161.526 386.924 160.396 387.876ZM91.2949 384.932L91.2438 384.881C90.1926 383.83 89.1871 382.734 88.2299 381.596L88.8677 381.06C89.8109 382.181 90.802 383.261 91.8383 384.297L91.2949 384.932V384.932ZM166.7 381.562L166.062 381.026C167.004 379.904 167.896 378.742 168.736 377.543L169.419 378.021C168.564 379.24 167.657 380.421 166.7 381.562V381.562ZM85.5055 378.055C84.6495 376.835 83.8475 375.579 83.1016 374.289L83.8233 373.872C84.5568 375.141 85.3457 376.377 86.1877 377.577L85.5055 378.055ZM171.817 374.257L171.095 373.84C171.827 372.571 172.503 371.271 173.122 369.943L173.877 370.295C173.249 371.645 172.562 372.967 171.817 374.257V374.257ZM81.0377 370.327C80.4086 368.976 79.8388 367.599 79.33 366.199L80.1133 365.914C80.614 367.292 81.1743 368.647 81.7927 369.975L81.0377 370.327V370.327ZM175.582 366.168L174.799 365.884C175.298 364.506 175.737 363.108 176.114 361.692L176.919 361.907C176.535 363.346 176.089 364.768 175.582 366.168ZM77.9905 361.938C77.6065 360.499 77.2852 359.043 77.0277 357.576L77.8488 357.432C78.1024 358.875 78.4184 360.307 78.7961 361.723L77.9905 361.938V361.938ZM177.879 357.545L177.058 357.402C177.31 355.958 177.499 354.505 177.625 353.045L178.455 353.117C178.328 354.601 178.135 356.078 177.879 357.545ZM76.4483 353.148C76.3195 351.664 76.2548 350.175 76.2544 348.686H77.0877C77.0877 350.146 77.1516 351.622 77.2783 353.075L76.4483 353.148ZM177.813 348.656C177.812 347.19 177.747 345.726 177.62 344.266L178.45 344.193C178.579 345.669 178.645 347.171 178.647 348.654L177.813 348.656ZM77.2783 344.296L76.4483 344.224C76.5775 342.74 76.7709 341.262 77.0277 339.795L77.8488 339.939C77.5961 341.383 77.4057 342.836 77.2783 344.296ZM177.047 339.91C176.793 338.467 176.476 337.035 176.098 335.619L176.903 335.405C177.287 336.844 177.609 338.299 177.868 339.766L177.047 339.91V339.91ZM78.7955 335.65L77.9905 335.435C78.3748 333.996 78.8215 332.575 79.3294 331.175L80.1127 331.459C79.6132 332.837 79.1737 334.235 78.7955 335.65V335.65ZM174.778 331.429C174.276 330.052 173.715 328.697 173.095 327.369L173.85 327.017C174.481 328.367 175.051 329.743 175.56 331.143L174.778 331.429V331.429ZM81.7916 327.401L81.0366 327.048C81.6656 325.699 82.3537 324.377 83.0988 323.088L83.8205 323.504C83.0877 324.773 82.4107 326.073 81.7916 327.401V327.401ZM171.063 323.474C170.329 322.206 169.539 320.97 168.696 319.771L169.378 319.292C170.235 320.511 171.037 321.767 171.784 323.056L171.063 323.474V323.474ZM86.1822 319.803L85.4999 319.325C86.3551 318.107 87.2628 316.926 88.2205 315.787L88.8583 316.323C87.9164 317.444 87.0236 318.605 86.1822 319.803V319.803ZM166.014 316.288C165.076 315.175 164.092 314.103 163.063 313.073L163.631 312.463L163.658 312.49C164.702 313.534 165.701 314.622 166.652 315.751L166.014 316.288V316.288ZM91.8394 313.073L91.2283 312.506L91.2733 312.463C92.3149 311.421 93.4009 310.424 94.5283 309.475L95.065 310.113C93.948 311.053 92.8718 312.041 91.8394 313.073V313.073ZM159.803 310.084C158.682 309.142 157.52 308.25 156.321 307.409L156.799 306.726C158.018 307.581 159.199 308.489 160.339 309.446L159.803 310.084V310.084ZM98.5477 307.431L98.0688 306.749C99.288 305.893 100.544 305.09 101.834 304.344L102.251 305.066C100.983 305.8 99.747 306.589 98.5477 307.431V307.431ZM152.618 305.048C151.35 304.316 150.05 303.639 148.722 303.021L149.074 302.266C150.424 302.895 151.745 303.582 153.035 304.327L152.618 305.048V305.048ZM106.148 303.035L105.796 302.28C107.146 301.651 108.523 301.08 109.923 300.571L110.208 301.354C108.83 301.855 107.476 302.416 106.148 303.035V303.035ZM144.663 301.343C143.286 300.843 141.888 300.404 140.473 300.027L140.687 299.222C142.126 299.605 143.548 300.052 144.948 300.56L144.663 301.343ZM114.399 300.035L114.184 299.23C115.623 298.846 117.078 298.525 118.545 298.267L118.689 299.087C117.246 299.341 115.815 299.657 114.399 300.035V300.035ZM136.182 299.082C134.738 298.829 133.285 298.639 131.825 298.513L131.897 297.683C133.373 297.811 134.863 298.006 136.325 298.262L136.182 299.082ZM123.046 298.514L122.973 297.684C124.457 297.555 125.946 297.49 127.436 297.49V298.323C125.978 298.323 124.502 298.388 123.046 298.514Z" fill="#E2DCE3"/>
<path d="M140.017 364.102L111.522 335.608H176.386L204.767 363.989L140.017 364.102Z" fill="url(#paint0_linear_1313_9486)"/>
<path d="M176.393 335.615C174.341 341.418 175.635 348.142 180.278 352.785L191.504 364.011L204.767 363.988L176.393 335.615Z" fill="url(#paint1_linear_1313_9486)"/>
<path d="M111.525 335.611C109.47 341.415 110.763 348.142 115.408 352.786L136.172 373.549C140.816 378.194 147.542 379.488 153.347 377.432L111.525 335.611V335.611Z" fill="url(#paint2_linear_1313_9486)"/>
<path d="M214.096 369.503L203.572 362.907H141.277V365.476L145.305 369.503H214.096Z" fill="#250F52"/>
<path d="M155.871 420.353V375.137C155.871 368.383 150.395 362.907 143.64 362.907H138.822C132.067 362.907 126.591 368.383 126.591 375.137V420.353H155.871Z" fill="url(#paint3_linear_1313_9486)"/>
<path d="M203.572 362.907V369.503H214.096L203.572 362.907Z" fill="#5C60D5"/>
<path d="M126.592 414.516H155.871V420.353H126.592V414.516Z" fill="#F2D265"/>
<path d="M155.871 386.023H126.592C126.444 386.023 126.303 385.965 126.199 385.861C126.095 385.756 126.036 385.615 126.036 385.468C126.036 385.32 126.095 385.179 126.199 385.075C126.303 384.971 126.444 384.912 126.592 384.912H155.871C156.018 384.912 156.159 384.971 156.263 385.075C156.368 385.179 156.426 385.32 156.426 385.468C156.426 385.615 156.368 385.756 156.263 385.861C156.159 385.965 156.018 386.023 155.871 386.023Z" fill="#2421A2"/>
<path d="M162.764 357.757H166.447V375.001H162.764V357.757ZM202.615 382.671L201.939 381.995H201.939L158.29 338.313H156.235L158.29 341.481L199.012 382.683C199.388 382.683 199.699 382.678 199.969 382.671H202.615V382.671Z" fill="#724A5F"/>
<path d="M184.1 366.209L156.235 338.313L156.234 382.671H200.59L184.1 366.209ZM164.745 374.16V358.574L180.315 374.16H164.745Z" fill="url(#paint4_linear_1313_9486)"/>
<path d="M159.64 379.708H156.235C156.17 379.708 156.108 379.683 156.063 379.637C156.017 379.592 155.991 379.53 155.991 379.465C155.991 379.401 156.017 379.339 156.063 379.293C156.108 379.248 156.17 379.222 156.235 379.222H159.64C159.672 379.221 159.705 379.226 159.736 379.237C159.767 379.249 159.795 379.266 159.819 379.289C159.843 379.312 159.862 379.339 159.875 379.369C159.888 379.4 159.895 379.432 159.895 379.465C159.895 379.498 159.888 379.531 159.875 379.561C159.862 379.591 159.843 379.619 159.819 379.641C159.795 379.664 159.767 379.682 159.736 379.693C159.705 379.705 159.672 379.71 159.64 379.708V379.708ZM159.639 376.323H156.235C156.171 376.323 156.109 376.297 156.063 376.251C156.017 376.206 155.992 376.144 155.992 376.079C155.992 376.015 156.017 375.953 156.063 375.907C156.109 375.862 156.171 375.836 156.235 375.836H159.639C159.704 375.836 159.765 375.862 159.811 375.907C159.857 375.953 159.882 376.015 159.882 376.079C159.882 376.144 159.857 376.206 159.811 376.251C159.765 376.297 159.704 376.323 159.639 376.323ZM159.639 372.937H156.235C156.171 372.937 156.109 372.912 156.063 372.866C156.017 372.82 155.992 372.758 155.992 372.694C155.992 372.629 156.017 372.567 156.063 372.522C156.109 372.476 156.171 372.451 156.235 372.451H159.639C159.704 372.451 159.765 372.476 159.811 372.522C159.857 372.567 159.882 372.629 159.882 372.694C159.882 372.758 159.857 372.82 159.811 372.866C159.765 372.912 159.704 372.937 159.639 372.937ZM159.639 369.552H156.235C156.17 369.552 156.108 369.527 156.062 369.481C156.017 369.435 155.991 369.373 155.991 369.309C155.991 369.244 156.017 369.182 156.062 369.137C156.108 369.091 156.17 369.066 156.235 369.066H159.639C159.704 369.066 159.765 369.091 159.811 369.137C159.857 369.182 159.882 369.244 159.882 369.309C159.882 369.373 159.857 369.435 159.811 369.481C159.765 369.527 159.704 369.552 159.639 369.552ZM159.639 366.168H156.235C156.171 366.168 156.109 366.142 156.063 366.097C156.017 366.051 155.992 365.989 155.992 365.924C155.992 365.86 156.017 365.798 156.063 365.752C156.109 365.707 156.171 365.681 156.235 365.681H159.639C159.704 365.681 159.765 365.707 159.811 365.752C159.857 365.798 159.882 365.86 159.882 365.924C159.882 365.989 159.857 366.051 159.811 366.097C159.765 366.142 159.704 366.168 159.639 366.168ZM159.639 362.782H156.235C156.203 362.782 156.172 362.775 156.142 362.763C156.112 362.751 156.086 362.733 156.063 362.71C156.04 362.688 156.023 362.661 156.01 362.631C155.998 362.602 155.992 362.57 155.992 362.538C155.992 362.506 155.998 362.475 156.01 362.445C156.023 362.416 156.04 362.389 156.063 362.366C156.086 362.344 156.112 362.326 156.142 362.314C156.172 362.301 156.203 362.295 156.235 362.295H159.639C159.704 362.295 159.765 362.321 159.811 362.366C159.857 362.412 159.882 362.474 159.882 362.538C159.882 362.603 159.857 362.665 159.811 362.71C159.765 362.756 159.704 362.782 159.639 362.782ZM159.639 359.396H156.235C156.171 359.396 156.109 359.37 156.063 359.324C156.018 359.279 155.992 359.217 155.992 359.153C155.992 359.088 156.018 359.027 156.063 358.981C156.109 358.936 156.171 358.91 156.235 358.91H159.639C159.703 358.91 159.765 358.936 159.811 358.981C159.856 359.027 159.882 359.088 159.882 359.153C159.882 359.217 159.856 359.279 159.811 359.324C159.765 359.37 159.703 359.396 159.639 359.396ZM159.639 356.011H156.235C156.171 356.011 156.109 355.985 156.063 355.939C156.018 355.894 155.992 355.832 155.992 355.767C155.992 355.703 156.018 355.641 156.063 355.596C156.109 355.55 156.171 355.524 156.235 355.524H159.639C159.703 355.524 159.765 355.55 159.811 355.596C159.856 355.641 159.882 355.703 159.882 355.767C159.882 355.832 159.856 355.894 159.811 355.939C159.765 355.985 159.703 356.011 159.639 356.011V356.011ZM159.639 352.626H156.235C156.171 352.626 156.109 352.6 156.063 352.554C156.018 352.509 155.992 352.447 155.992 352.383C155.992 352.318 156.018 352.256 156.063 352.211C156.109 352.165 156.171 352.139 156.235 352.139H159.639C159.703 352.139 159.765 352.165 159.811 352.211C159.856 352.256 159.882 352.318 159.882 352.383C159.882 352.447 159.856 352.509 159.811 352.554C159.765 352.6 159.703 352.626 159.639 352.626V352.626ZM159.639 349.24H156.235C156.171 349.24 156.109 349.214 156.063 349.169C156.018 349.123 155.992 349.061 155.992 348.997C155.992 348.932 156.018 348.871 156.063 348.825C156.109 348.779 156.171 348.754 156.235 348.754H159.639C159.672 348.752 159.705 348.757 159.736 348.769C159.766 348.78 159.795 348.798 159.819 348.821C159.842 348.844 159.861 348.871 159.874 348.901C159.887 348.931 159.894 348.964 159.894 348.997C159.894 349.03 159.887 349.062 159.874 349.093C159.861 349.123 159.842 349.15 159.819 349.173C159.795 349.196 159.766 349.213 159.736 349.225C159.705 349.236 159.672 349.242 159.639 349.24V349.24ZM159.639 345.855H156.235C156.171 345.855 156.109 345.829 156.063 345.784C156.018 345.738 155.992 345.676 155.992 345.612C155.992 345.547 156.018 345.486 156.063 345.44C156.109 345.394 156.171 345.369 156.235 345.369H159.639C159.703 345.369 159.765 345.394 159.811 345.44C159.856 345.486 159.882 345.547 159.882 345.612C159.882 345.676 159.856 345.738 159.811 345.784C159.765 345.829 159.703 345.855 159.639 345.855V345.855Z" fill="#EA971D"/>
<path d="M205.535 362.907H203.572L214.096 369.503H154.495C155.401 371.243 155.873 373.176 155.871 375.137V420.353H217.766V375.137C217.766 368.383 212.29 362.907 205.535 362.907V362.907Z" fill="url(#paint5_linear_1313_9486)"/>
<path d="M217.765 386.023H155.871C155.724 386.023 155.582 385.965 155.478 385.861C155.374 385.756 155.315 385.615 155.315 385.468C155.315 385.32 155.374 385.179 155.478 385.075C155.582 384.971 155.724 384.912 155.871 384.912H217.765C217.913 384.912 218.054 384.971 218.158 385.075C218.262 385.179 218.321 385.32 218.321 385.468C218.321 385.615 218.262 385.756 218.158 385.861C218.054 385.965 217.913 386.023 217.765 386.023V386.023Z" fill="#3E3EBA"/>
<path d="M168.24 388.073C168.24 388.41 168.307 388.745 168.436 389.057C168.565 389.369 168.755 389.652 168.993 389.891C169.232 390.13 169.516 390.319 169.828 390.448C170.14 390.578 170.474 390.644 170.812 390.644C171.15 390.644 171.484 390.577 171.796 390.448C172.108 390.319 172.391 390.13 172.63 389.891C172.869 389.652 173.058 389.369 173.187 389.057C173.317 388.745 173.383 388.41 173.383 388.073V386.682H168.24V388.073ZM173.383 382.725C173.383 382.043 173.112 381.389 172.63 380.907C172.148 380.424 171.494 380.154 170.812 380.154C170.13 380.154 169.476 380.424 168.993 380.907C168.511 381.389 168.24 382.043 168.24 382.725V384.254H173.383V382.725ZM208.206 382.829C208.206 382.147 207.935 381.493 207.453 381.011C206.971 380.529 206.317 380.258 205.635 380.258C204.953 380.258 204.299 380.529 203.817 381.011C203.335 381.493 203.064 382.147 203.064 382.829V384.254H208.206V382.829V382.829ZM203.064 388.177C203.064 389.598 204.215 390.748 205.635 390.748C207.056 390.748 208.206 389.598 208.206 388.177V386.682H203.064V388.177Z" fill="#E3DDE4"/>
<path d="M155.871 414.516H217.765V420.353H155.871V414.516Z" fill="url(#paint6_linear_1313_9486)"/>
<path d="M213.057 350.229C213.056 350.224 213.057 350.218 213.056 350.214C213.051 350.181 213.04 350.15 213.025 350.12C213.023 350.114 213.018 350.111 213.015 350.106C213.002 350.081 212.986 350.059 212.967 350.038L212.965 350.036L206.149 342.881C206.101 342.833 206.04 342.801 205.973 342.789C205.966 342.787 205.96 342.787 205.954 342.784C205.934 342.782 205.917 342.773 205.897 342.773L198.763 342.771C198.709 342.737 198.646 342.719 198.581 342.719C198.517 342.718 198.453 342.736 198.399 342.771L191.086 342.769C191.071 342.769 191.056 342.777 191.041 342.779C191.017 342.783 190.994 342.786 190.972 342.793C190.951 342.8 190.934 342.811 190.915 342.821C190.894 342.832 190.875 342.846 190.857 342.861C190.85 342.867 190.842 342.869 190.836 342.874L183.85 350.026C183.849 350.028 183.849 350.03 183.846 350.032C183.834 350.046 183.822 350.063 183.811 350.079C183.804 350.091 183.795 350.101 183.788 350.114L183.786 350.117C183.777 350.134 183.775 350.152 183.77 350.17C183.766 350.183 183.759 350.194 183.757 350.208C183.751 350.238 183.75 350.269 183.753 350.3C183.754 350.312 183.759 350.324 183.76 350.336C183.765 350.358 183.769 350.38 183.777 350.401L183.778 350.406C183.782 350.416 183.79 350.422 183.794 350.431C183.804 350.448 183.811 350.467 183.823 350.483L198.3 369.328C198.302 369.332 198.306 369.334 198.308 369.337C198.334 369.369 198.366 369.396 198.401 369.418C198.433 369.436 198.469 369.448 198.505 369.455C198.53 369.461 198.554 369.466 198.579 369.465L198.582 369.464C198.629 369.462 198.675 369.451 198.717 369.432C198.726 369.427 198.734 369.424 198.742 369.419C198.784 369.397 198.82 369.367 198.849 369.33C198.85 369.328 198.853 369.328 198.855 369.326L212.992 350.486C213.006 350.468 213.015 350.448 213.025 350.428C213.027 350.423 213.031 350.418 213.033 350.414L213.034 350.411C213.045 350.384 213.052 350.356 213.056 350.328C213.057 350.323 213.06 350.318 213.06 350.314C213.062 350.286 213.061 350.257 213.057 350.229V350.229ZM211.898 349.927L207.116 349.926L206.355 344.107L211.898 349.927ZM205.567 343.471L206.339 349.375L199.578 343.469L205.567 343.471ZM198.58 343.523L205.909 349.926L191.093 349.923L198.58 343.523ZM191.392 343.468L197.568 343.469L190.612 349.416L191.392 343.468ZM190.605 344.112L189.842 349.922L184.929 349.922L190.605 344.112ZM184.809 350.619L189.922 350.621L197.049 366.555L184.809 350.619V350.619ZM198.574 368.253L190.687 350.621L206.306 350.624L198.574 368.253ZM200.106 366.497L207.067 350.624L212.015 350.625L200.106 366.497V366.497Z" fill="#F2D265"/>
<path d="M241.506 264.211C244.547 264.211 247.012 261.745 247.012 258.704C247.012 255.663 244.547 253.197 241.506 253.197C238.464 253.197 235.999 255.663 235.999 258.704C235.999 261.745 238.464 264.211 241.506 264.211Z" fill="#92A6EB"/>
<path d="M241.505 282.908C228.159 282.908 217.302 272.049 217.302 258.703C217.302 245.358 228.159 234.501 241.505 234.501C254.851 234.501 265.709 245.358 265.709 258.703C265.709 272.049 254.851 282.908 241.505 282.908ZM241.505 235.612C228.772 235.612 218.413 245.971 218.413 258.703C218.413 271.437 228.772 281.797 241.505 281.797C254.238 281.797 264.598 271.437 264.598 258.703C264.598 245.971 254.238 235.612 241.505 235.612Z" fill="#E3DDE4"/>
<path d="M241.505 201.908C210.137 201.908 184.709 227.336 184.709 258.704C184.709 290.071 210.137 315.5 241.505 315.5C272.872 315.5 298.301 290.071 298.301 258.704C298.301 227.336 272.873 201.908 241.505 201.908V201.908ZM241.505 301.241C218.012 301.241 198.968 282.196 198.968 258.704C198.968 235.211 218.013 216.167 241.505 216.167C264.997 216.167 284.042 235.212 284.042 258.704C284.042 282.196 264.998 301.241 241.505 301.241V301.241Z" fill="url(#paint7_linear_1313_9486)"/>
<path d="M241.505 201.908V216.167C264.935 216.167 283.937 235.112 284.037 258.518H298.299C298.199 227.236 272.811 201.908 241.505 201.908V201.908Z" fill="url(#paint8_linear_1313_9486)"/>
<path d="M155.695 92.2222H115.95C115.24 92.215 114.536 92.3486 113.878 92.6152C113.22 92.8818 112.621 93.2763 112.117 93.7757C111.612 94.275 111.212 94.8695 110.938 95.5246C110.665 96.1798 110.524 96.8826 110.524 97.5925C110.524 98.3023 110.665 99.0052 110.938 99.6603C111.212 100.315 111.612 100.91 112.117 101.409C112.621 101.909 113.22 102.303 113.878 102.57C114.536 102.836 115.24 102.97 115.95 102.963H155.695V92.2222Z" fill="#BCB3B8"/>
<path d="M266.412 92.2222H159.63V102.963H266.412C269.378 102.963 271.782 100.559 271.782 97.5927C271.782 94.6266 269.378 92.2222 266.412 92.2222Z" fill="url(#paint9_linear_1313_9486)"/>
<path d="M297.245 65H230.255V75.7406H297.245C297.955 75.7478 298.659 75.6142 299.317 75.3476C299.975 75.0809 300.574 74.6865 301.078 74.1871C301.583 73.6877 301.983 73.0933 302.257 72.4381C302.53 71.783 302.671 71.0802 302.671 70.3703C302.671 69.6604 302.53 68.9576 302.257 68.3025C301.983 67.6473 301.583 67.0529 301.078 66.5535C300.574 66.0541 299.975 65.6597 299.317 65.393C298.659 65.1264 297.955 64.9928 297.245 65V65Z" fill="url(#paint10_linear_1313_9486)"/>
<path d="M200.988 191.935L203.205 184.694L196.849 180.123C196.89 179.437 196.913 178.747 196.902 178.049C196.888 177.359 196.848 176.67 196.781 175.984L202.985 171.192L200.522 164.032L192.709 164.068C191.966 162.904 191.133 161.799 190.22 160.763L192.426 153.249L186.228 148.898L179.925 153.515C178.631 153.005 177.299 152.597 175.942 152.296L173.308 144.922L165.737 145.047L163.351 152.494C161.989 152.842 160.658 153.297 159.368 153.856L152.915 149.447L146.864 154L149.318 161.442C148.441 162.506 147.647 163.636 146.943 164.822L139.127 165.044L136.902 172.282L143.267 176.871C143.224 177.558 143.206 178.246 143.215 178.934C143.227 179.631 143.273 180.318 143.336 181L137.128 185.783L139.582 192.947L147.412 192.92C148.16 194.089 148.997 195.199 149.916 196.239L147.71 203.749L153.907 208.101L160.221 203.477C161.518 203.987 162.853 204.394 164.213 204.694L166.845 212.06L174.416 211.935L176.805 204.478C178.14 204.134 179.446 203.687 180.712 203.141L187.173 207.552L193.223 202.998L190.773 195.571C191.659 194.499 192.461 193.361 193.171 192.165L200.988 191.935V191.935ZM154.675 178.747C154.535 170.244 161.301 163.25 169.803 163.11C178.306 162.969 185.3 169.736 185.44 178.239C185.58 186.741 178.814 193.735 170.311 193.876C161.808 194.016 154.815 187.249 154.675 178.747V178.747Z" fill="url(#paint11_linear_1313_9486)"/>
<path d="M170.05 200.311C158.221 200.311 148.438 190.684 148.242 178.852C148.146 173.021 150.323 167.504 154.374 163.318C158.424 159.132 163.866 156.773 169.698 156.677C181.711 156.483 191.676 166.178 191.873 178.132C192.072 190.161 182.447 200.109 170.418 200.308C170.295 200.309 170.172 200.311 170.05 200.311V200.311ZM170.066 157.786C169.95 157.786 169.833 157.787 169.716 157.788C164.181 157.879 159.016 160.118 155.172 164.091C151.329 168.063 149.262 173.299 149.353 178.834C149.541 190.18 159.027 199.4 170.4 199.196C181.816 199.008 190.95 189.567 190.762 178.151C190.576 166.921 181.292 157.786 170.066 157.786Z" fill="#E3DDE4"/>
<path d="M164.578 177.124C164.586 177.655 164.699 178.179 164.911 178.667C165.122 179.154 165.427 179.595 165.809 179.965C166.191 180.334 166.642 180.625 167.136 180.82C167.63 181.015 168.158 181.11 168.689 181.101C169.22 181.093 169.744 180.979 170.232 180.768C170.719 180.557 171.16 180.252 171.529 179.87C171.899 179.488 172.189 179.038 172.384 178.543C172.579 178.049 172.675 177.522 172.666 176.991C172.658 176.459 172.545 175.935 172.333 175.448C172.122 174.96 171.817 174.519 171.435 174.15C171.053 173.78 170.602 173.49 170.108 173.295C169.614 173.099 169.086 173.004 168.555 173.013C168.024 173.021 167.5 173.134 167.012 173.346C166.525 173.557 166.084 173.862 165.714 174.244C165.345 174.626 165.054 175.077 164.859 175.571C164.664 176.065 164.569 176.593 164.578 177.124V177.124Z" fill="#C6BDC2"/>
<path d="M169.931 179.444C169.718 179.444 169.506 179.363 169.343 179.202L122.591 132.635C122.513 132.558 122.452 132.466 122.41 132.365C122.368 132.263 122.346 132.155 122.346 132.045C122.346 131.936 122.367 131.827 122.409 131.726C122.451 131.624 122.512 131.532 122.59 131.455L157.042 97.0033C157.119 96.9237 157.211 96.8602 157.313 96.8166C157.414 96.7729 157.524 96.7499 157.634 96.7489C157.745 96.748 157.855 96.7691 157.957 96.811C158.06 96.8529 158.153 96.9147 158.231 96.993C158.309 97.0712 158.371 97.1643 158.413 97.2667C158.455 97.3691 158.476 97.4788 158.475 97.5895C158.474 97.7001 158.451 97.8095 158.407 97.9112C158.364 98.0128 158.3 98.1048 158.221 98.1816L124.359 132.043L170.519 178.021C170.636 178.137 170.716 178.285 170.748 178.447C170.78 178.609 170.764 178.777 170.701 178.929C170.638 179.082 170.531 179.212 170.394 179.304C170.257 179.395 170.096 179.444 169.931 179.444V179.444Z" fill="#C6BDC2"/>
<path d="M157.632 109.352C164.126 109.352 169.391 104.087 169.391 97.5928C169.391 91.0983 164.126 85.8334 157.632 85.8334C151.137 85.8334 145.872 91.0983 145.872 97.5928C145.872 104.087 151.137 109.352 157.632 109.352Z" fill="url(#paint12_linear_1313_9486)"/>
<path d="M166.013 178.559C166.021 179.09 166.134 179.614 166.346 180.102C166.557 180.589 166.862 181.03 167.244 181.4C167.626 181.769 168.077 182.06 168.571 182.255C169.065 182.449 169.593 182.545 170.124 182.536C170.655 182.528 171.179 182.414 171.667 182.203C172.154 181.992 172.595 181.687 172.964 181.305C173.334 180.923 173.624 180.472 173.819 179.978C174.014 179.484 174.11 178.957 174.101 178.425C174.093 177.894 173.98 177.37 173.768 176.882C173.557 176.395 173.252 175.954 172.87 175.585C172.488 175.215 172.037 174.925 171.543 174.729C171.049 174.534 170.521 174.439 169.99 174.448C169.459 174.456 168.935 174.57 168.447 174.781C167.96 174.992 167.519 175.297 167.15 175.679C166.78 176.061 166.49 176.512 166.295 177.006C166.1 177.5 166.004 178.028 166.013 178.559V178.559Z" fill="#BE4118"/>
<path d="M157.631 102.222C160.188 102.222 162.261 100.15 162.261 97.5928C162.261 95.0361 160.188 92.9634 157.631 92.9634C155.075 92.9634 153.002 95.0361 153.002 97.5928C153.002 100.15 155.075 102.222 157.631 102.222Z" fill="#F2D265"/>
<path d="M265.397 155.678C265.53 154.852 265.62 154.03 265.689 153.21L274.037 148.844L272.63 139.853L263.377 138.252C262.742 136.719 261.989 135.236 261.126 133.818L265.317 125.391L258.898 118.938L250.467 123.075C249.044 122.2 247.554 121.437 246.011 120.795L244.446 111.515L235.46 110.07L231.07 118.381C229.385 118.507 227.714 118.765 226.07 119.155L219.36 112.581L211.242 116.696L212.581 126.018C211.319 127.093 210.142 128.263 209.06 129.518L199.764 128.137L195.609 136.234L202.175 143.004C201.979 143.807 201.813 144.618 201.679 145.433C201.55 146.253 201.453 147.077 201.387 147.904L193.035 152.258L194.431 161.252L203.702 162.867C204.341 164.408 205.098 165.898 205.967 167.322L201.777 175.745L208.194 182.198L216.639 178.055C218.067 178.931 219.56 179.693 221.107 180.335L222.67 189.604L231.656 191.049L236.052 182.728C237.704 182.602 239.344 182.348 240.957 181.968L247.675 188.547L255.792 184.431L254.455 175.126C255.729 174.044 256.917 172.865 258.009 171.6L267.311 172.971L271.456 164.869L264.896 158.122C265.095 157.314 265.262 156.499 265.397 155.678V155.678ZM215.281 147.619C216.904 137.528 226.382 130.675 236.474 132.298C246.565 133.921 253.417 143.399 251.795 153.491C250.172 163.582 240.694 170.434 230.602 168.812C220.511 167.189 213.659 157.711 215.281 147.619V147.619Z" fill="url(#paint13_linear_1313_9486)"/>
<path d="M233.577 176.671C232.186 176.671 230.778 176.558 229.392 176.335C215.177 174.05 205.472 160.625 207.757 146.41C209.805 133.679 220.63 124.44 233.498 124.44C234.89 124.44 236.298 124.553 237.683 124.775C251.898 127.061 261.604 140.485 259.318 154.7C257.271 167.431 246.446 176.671 233.577 176.671V176.671ZM233.498 125.55C221.178 125.55 210.815 134.397 208.855 146.586C206.666 160.197 215.958 173.049 229.569 175.238C230.896 175.452 232.245 175.56 233.577 175.56C245.897 175.56 256.261 166.713 258.221 154.524C260.408 140.914 251.117 128.061 237.507 125.873C236.181 125.659 234.841 125.551 233.498 125.55V125.55Z" fill="#E3DDE4"/>
<path d="M231.829 153.676C234.514 153.676 236.69 151.499 236.69 148.814C236.69 146.13 234.514 143.953 231.829 143.953C229.144 143.953 226.968 146.13 226.968 148.814C226.968 151.499 229.144 153.676 231.829 153.676Z" fill="#C6BDC2"/>
<path d="M233.542 151.361C233.342 151.361 233.142 151.289 232.982 151.144L188.167 110.524C188.084 110.449 188.016 110.357 187.969 110.254C187.922 110.151 187.897 110.04 187.894 109.927C187.891 109.815 187.911 109.702 187.953 109.598C187.995 109.493 188.058 109.398 188.138 109.318L227.675 69.7805C227.752 69.7009 227.844 69.6375 227.945 69.5938C228.047 69.5501 228.156 69.5271 228.267 69.5262C228.378 69.5252 228.487 69.5463 228.59 69.5882C228.692 69.6301 228.785 69.692 228.864 69.7702C228.942 69.8484 229.004 69.9415 229.046 70.0439C229.088 70.1463 229.109 70.256 229.108 70.3667C229.107 70.4773 229.084 70.5867 229.04 70.6884C228.996 70.79 228.933 70.882 228.853 70.9589L189.935 109.877L234.102 149.909C234.226 150.022 234.314 150.171 234.353 150.334C234.392 150.498 234.38 150.67 234.32 150.827C234.259 150.984 234.152 151.119 234.013 151.215C233.874 151.31 233.71 151.361 233.542 151.361V151.361Z" fill="#C6BDC2"/>
<path d="M228.264 82.13C234.759 82.13 240.024 76.8651 240.024 70.3705C240.024 63.876 234.759 58.6111 228.264 58.6111C221.77 58.6111 216.505 63.876 216.505 70.3705C216.505 76.8651 221.77 82.13 228.264 82.13Z" fill="url(#paint14_linear_1313_9486)"/>
<path d="M233.542 155.388C236.227 155.388 238.403 153.212 238.403 150.527C238.403 147.843 236.227 145.666 233.542 145.666C230.858 145.666 228.681 147.843 228.681 150.527C228.681 153.212 230.858 155.388 233.542 155.388Z" fill="#BE4118"/>
<path d="M228.265 75C230.821 75 232.894 72.9273 232.894 70.3705C232.894 67.8138 230.821 65.7411 228.265 65.7411C225.708 65.7411 223.635 67.8138 223.635 70.3705C223.635 72.9273 225.708 75 228.265 75Z" fill="#92A6EB"/>
<path d="M385.67 424.365C388.325 424.377 391.769 423.26 393.92 422.448C393.233 419.837 392.344 417.224 392.153 415.555C391.783 412.315 390.69 402.359 390.767 400.603L377.246 400.689C377.246 400.689 381.366 415.185 379.378 417.084C378.538 417.887 377.493 418.59 376.319 419.209C377.071 419.315 377.812 419.555 378.516 419.984C380.809 421.384 382.477 424.352 385.67 424.365V424.365Z" fill="url(#paint15_linear_1313_9486)"/>
<path d="M355.212 427.918C355.767 428.566 359.18 431.221 372.063 431.807C382.249 432.27 394.101 430.104 394.563 428.473C394.643 428.193 394.695 428.446 394.725 428.125C394.872 426.539 394.458 424.494 393.92 422.448C391.769 423.261 388.326 424.378 385.67 424.366C382.477 424.352 380.809 421.384 378.516 419.984C377.844 419.577 377.097 419.313 376.319 419.208C370.014 422.529 359.984 423.398 357.851 424.122C357.188 424.343 356.592 424.726 356.115 425.236C355.638 425.747 355.295 426.368 355.119 427.043C354.958 427.681 355.003 427.674 355.212 427.918V427.918Z" fill="url(#paint16_linear_1313_9486)"/>
<path d="M343.499 223.855C342.617 231.481 347.246 283.889 354.283 324.629C361.32 365.37 370.348 391.667 371.135 401.296C371.278 403.037 377.616 403.867 383.195 403.333C387.917 402.882 390.815 401.382 391.185 400.271C391.555 399.159 391.942 369.552 387.987 344.815C382.709 311.806 386.151 300.379 388.739 276.942C392.061 246.852 390.95 235.926 388.404 223.611C386.466 214.24 375.216 222.292 365.951 222.865C356.685 223.438 343.499 223.855 343.499 223.855V223.855Z" fill="url(#paint17_linear_1313_9486)"/>
<path d="M359.251 275.914L358.89 272.083L359.896 269.618L360.359 275.825L359.251 275.914Z" fill="url(#paint18_linear_1313_9486)"/>
<path d="M377.409 396.627C377.313 395.529 377.194 394.432 377.053 393.339L378.156 393.198C378.301 394.332 378.422 395.454 378.515 396.532L377.409 396.627V396.627ZM376.747 391.153C376.58 390.06 376.397 388.971 376.2 387.883L377.293 387.685C377.499 388.82 377.685 389.93 377.846 390.986L376.747 391.153V391.153ZM375.787 385.709C375.577 384.643 375.353 383.559 375.116 382.457L376.202 382.223C376.437 383.312 376.662 384.403 376.878 385.495L375.787 385.709V385.709ZM374.642 380.292C374.405 379.23 374.159 378.15 373.904 377.047L374.987 376.797C375.242 377.902 375.489 378.986 375.726 380.049L374.642 380.292V380.292ZM373.731 371.396L374.492 374.639L373.411 374.893L372.65 371.65L373.731 371.396ZM372.132 369.479C371.884 368.419 371.631 367.338 371.376 366.233L372.459 365.983C372.714 367.087 372.966 368.168 373.213 369.227L372.132 369.479V369.479ZM370.879 364.066C370.637 363.003 370.394 361.919 370.149 360.812L371.234 360.572C371.478 361.677 371.722 362.759 371.963 363.82L370.879 364.066ZM369.674 358.64C369.444 357.573 369.212 356.486 368.981 355.376L370.07 355.149C370.3 356.257 370.53 357.341 370.76 358.404L369.674 358.64ZM368.534 353.197C368.317 352.126 368.102 351.035 367.887 349.923L368.978 349.712C369.192 350.821 369.407 351.909 369.624 352.976L368.534 353.197ZM367.471 347.738C367.267 346.644 367.068 345.55 366.873 344.455L367.967 344.261C368.165 345.372 368.363 346.462 368.564 347.534L367.471 347.738ZM366.492 342.262C366.307 341.184 366.125 340.087 365.945 338.97L367.042 338.793C367.221 339.906 367.403 341 367.587 342.074L366.492 342.262V342.262ZM365.596 336.772C365.425 335.673 365.259 334.573 365.099 333.473L366.198 333.312C366.361 334.427 366.526 335.523 366.694 336.602L365.596 336.772V336.772ZM364.785 331.271C364.631 330.169 364.482 329.066 364.338 327.963L365.439 327.819C365.585 328.936 365.733 330.034 365.885 331.117L364.785 331.271V331.271ZM364.057 325.756C363.919 324.652 363.787 323.548 363.659 322.443L364.762 322.315C364.891 323.433 365.023 324.533 365.159 325.618L364.057 325.756ZM363.407 320.232C363.287 319.157 363.166 318.049 363.044 316.912L364.148 316.794C364.271 317.929 364.392 319.035 364.512 320.108L363.407 320.232ZM362.808 314.699C362.694 313.615 362.579 312.507 362.464 311.378L363.57 311.265C363.685 312.393 363.799 313.499 363.913 314.583L362.808 314.699V314.699ZM362.24 309.164C362.13 308.073 362.02 306.965 361.911 305.842L363.016 305.734C363.126 306.857 363.236 307.964 363.345 309.054L362.24 309.164ZM361.696 303.627C361.591 302.531 361.485 301.423 361.38 300.304L362.486 300.199C362.591 301.318 362.696 302.425 362.802 303.521L361.696 303.627V303.627ZM361.172 298.089C361.07 296.99 360.969 295.881 360.867 294.766L361.974 294.664C362.076 295.78 362.177 296.888 362.279 297.986L361.172 298.089V298.089ZM360.667 292.549C360.568 291.447 360.471 290.338 360.373 289.225L361.48 289.127C361.577 290.24 361.676 291.348 361.774 292.45L360.667 292.549ZM360.971 283.592L361.256 286.918L360.15 287.012L359.865 283.687L360.971 283.592ZM360.539 278.053L360.815 281.382L359.707 281.473L359.431 278.145L360.539 278.053ZM358.812 270.376C358.725 269.262 358.64 268.152 358.556 267.048L359.664 266.964C359.747 268.067 359.833 269.176 359.92 270.289L358.812 270.376V270.376ZM358.39 264.829C358.306 263.712 358.224 262.601 358.145 261.5L359.252 261.419C359.332 262.519 359.414 263.629 359.497 264.746L358.39 264.829ZM357.985 259.282C357.905 258.159 357.827 257.049 357.751 255.951L358.86 255.875C358.936 256.972 359.012 258.082 359.092 259.202L357.985 259.282V259.282ZM357.601 253.731C357.526 252.604 357.452 251.493 357.382 250.399L358.491 250.328C358.561 251.42 358.635 252.53 358.71 253.657L357.601 253.731ZM357.241 248.178C357.171 247.045 357.104 245.933 357.04 244.845L358.148 244.78C358.212 245.867 358.28 246.977 358.35 248.109L357.241 248.178ZM356.911 242.623C356.847 241.479 356.786 240.366 356.731 239.287L357.841 239.229C357.897 240.307 357.956 241.418 358.02 242.56L356.911 242.623V242.623ZM356.621 237.062C356.568 235.949 356.519 234.836 356.474 233.722L357.584 233.678C357.627 234.74 357.676 235.852 357.731 237.009L356.621 237.062ZM356.391 231.494C356.353 230.379 356.322 229.264 356.299 228.148L357.41 228.126C357.431 229.153 357.462 230.267 357.501 231.457L356.391 231.494V231.494ZM356.27 225.912L356.269 225.425C356.269 224.287 356.288 223.319 356.327 222.549L357.437 222.606C357.399 223.357 357.38 224.306 357.38 225.426L357.381 225.898L356.27 225.912V225.912Z" fill="#6A74EF"/>
<path d="M355.212 428.473C355.767 429.122 359.179 431.776 372.063 432.362C382.249 432.826 394.1 430.66 394.563 429.029C394.741 428.402 394.784 427.662 394.737 426.852C370.615 432.924 357.27 427.037 355.536 426.024C354.955 427.039 354.896 428.106 355.212 428.473Z" fill="url(#paint19_linear_1313_9486)"/>
<path d="M383.195 403.333C387.917 402.882 390.814 401.382 391.184 400.271C391.3 399.922 391.418 396.772 391.403 391.851C381.856 397.313 371.69 394.444 369.873 394.057C370.541 397.055 370.986 399.475 371.135 401.296C371.277 403.037 377.615 403.867 383.195 403.333Z" fill="url(#paint20_linear_1313_9486)"/>
<path d="M379.602 397.723L379.576 396.889C380.698 396.856 381.818 396.764 382.931 396.612L383.045 397.437C381.903 397.593 380.754 397.688 379.602 397.723ZM377.301 397.719C376.151 397.68 375.004 397.59 373.863 397.449L373.965 396.622C375.089 396.761 376.222 396.849 377.329 396.887L377.301 397.719ZM385.316 397.033L385.137 396.219C386.231 395.981 387.307 395.67 388.36 395.289L388.644 396.073C387.557 396.466 386.445 396.787 385.316 397.033V397.033ZM371.741 396.282C371.254 396.192 370.769 396.092 370.287 395.983C370.349 396.288 370.409 396.584 370.466 396.875C370.839 396.956 371.214 397.031 371.591 397.101L371.741 396.282V396.282ZM390.787 395.177C390.993 395.078 391.191 394.963 391.394 394.859C391.398 394.555 391.4 394.241 391.402 393.915C391.079 394.089 390.759 394.267 390.428 394.425L390.787 395.177Z" fill="#5C60D5"/>
<path d="M298.334 425.764C300.348 428.194 302.149 429.966 304.306 429.93C306.829 429.888 309.271 428.905 310.808 428.135C310.389 425.943 309.832 423.79 309.653 422.222C309.283 418.982 312.06 410.833 312.524 408.981L299.375 406.944C299.375 406.944 299.329 418.241 295.857 422.685C295.485 423.161 295.041 423.598 294.549 424.004C295.96 424.072 297.335 424.558 298.334 425.764Z" fill="url(#paint21_linear_1313_9486)"/>
<path d="M271.69 433.518C272.246 434.167 275.658 436.821 288.542 437.407C298.728 437.87 310.579 435.705 311.042 434.074C311.125 433.779 311.188 434.023 311.23 433.698C311.443 432.067 311.18 430.086 310.808 428.135C309.27 428.905 306.829 429.888 304.306 429.93C302.149 429.965 300.348 428.194 298.334 425.763C297.335 424.558 295.96 424.071 294.549 424.004C289.013 428.577 276.653 428.934 274.329 429.722C272.514 430.338 271.675 431.907 271.525 433.015C271.461 433.489 271.524 433.324 271.69 433.518V433.518Z" fill="url(#paint22_linear_1313_9486)"/>
<path d="M329.609 234.722C327.617 240.741 314.69 274.734 308.913 296.296C300.07 329.306 294.727 403.696 295.024 406.667C295.163 408.056 300.241 409.477 304.005 409.792C307.629 410.094 311.876 410.463 312.755 409.583C313.881 408.457 330.21 357.962 332.802 342.592C335.394 327.222 341.876 307.778 351.32 288.333C360.765 268.889 369.166 248.042 370.243 224.669C364.113 222.018 358.053 222.734 348.265 222.5C338.677 222.271 334.538 224.529 332.443 228.148C330.347 231.768 329.609 234.722 329.609 234.722V234.722Z" fill="url(#paint23_linear_1313_9486)"/>
<path d="M348.753 293.259C349.849 290.826 351.007 288.413 352.147 286.003C353.285 283.592 354.394 281.166 355.472 278.727C357.627 273.849 359.639 268.91 361.438 263.897C361.456 263.845 361.484 263.798 361.521 263.757C361.558 263.716 361.602 263.683 361.652 263.66C361.701 263.637 361.755 263.623 361.809 263.62C361.864 263.618 361.919 263.626 361.97 263.644C362.022 263.663 362.069 263.691 362.11 263.728C362.15 263.764 362.183 263.809 362.207 263.858C362.23 263.908 362.244 263.961 362.246 264.016C362.249 264.071 362.241 264.125 362.222 264.177L362.22 264.182C360.35 269.196 358.27 274.125 356.048 278.986C354.938 281.416 353.797 283.832 352.626 286.233C351.453 288.634 350.27 291.02 349.144 293.441C349.12 293.492 349.076 293.532 349.022 293.552C348.968 293.571 348.909 293.569 348.857 293.545C348.806 293.521 348.766 293.477 348.747 293.424C348.727 293.37 348.729 293.311 348.753 293.259V293.259Z" fill="#5C60D5"/>
<path d="M309.25 403.74L308.147 403.61C308.268 402.584 308.391 401.478 308.521 400.298L309.626 400.419C309.505 401.527 309.38 402.634 309.25 403.74V403.74ZM309.866 398.206L308.761 398.087L309.116 394.769L310.221 394.887L309.866 398.206ZM310.458 392.677L309.353 392.557C309.469 391.484 309.589 390.377 309.713 389.239L310.818 389.361C310.693 390.498 310.573 391.604 310.458 392.677V392.677ZM311.063 387.152L309.958 387.028C310.079 385.947 310.205 384.841 310.336 383.711L311.439 383.838C311.308 384.967 311.184 386.072 311.063 387.152V387.152ZM311.698 381.632L310.594 381.501C310.723 380.416 310.857 379.31 310.996 378.187L312.098 378.323C311.959 379.444 311.826 380.547 311.698 381.632ZM312.374 376.118L311.272 375.978C311.41 374.889 311.554 373.786 311.703 372.667L312.804 372.814C312.655 373.929 312.513 375.032 312.374 376.118V376.118ZM313.101 370.612L312 370.462C312.15 369.371 312.304 368.269 312.464 367.154L313.564 367.313C313.404 368.423 313.25 369.524 313.101 370.612V370.612ZM313.884 365.115L312.785 364.952C312.946 363.861 313.114 362.76 313.285 361.651L314.384 361.822C314.214 362.919 314.047 364.017 313.884 365.115V365.115ZM314.731 359.628L313.634 359.452C313.809 358.361 313.99 357.262 314.176 356.157L315.272 356.341C315.087 357.436 314.907 358.532 314.731 359.628V359.628ZM315.646 354.153L314.551 353.962C314.741 352.871 314.936 351.774 315.138 350.674L316.231 350.873C316.031 351.966 315.836 353.059 315.646 354.153V354.153ZM316.637 348.692L315.545 348.486C315.752 347.391 315.964 346.298 316.181 345.206L317.271 345.423C317.054 346.512 316.843 347.601 316.637 348.692V348.692ZM317.711 343.247L316.623 343.024C316.845 341.939 317.074 340.852 317.31 339.763L318.396 339.999C318.161 341.08 317.933 342.163 317.711 343.247ZM318.871 337.836L317.788 337.592C318.03 336.509 318.279 335.424 318.534 334.341L319.615 334.594C319.361 335.676 319.113 336.756 318.871 337.836V337.836ZM320.131 332.439L319.052 332.177C319.316 331.094 319.586 330.013 319.863 328.934L320.94 329.211C320.664 330.286 320.394 331.362 320.131 332.439V332.439ZM321.5 327.063L320.426 326.777C320.713 325.699 321.007 324.623 321.308 323.549L322.378 323.848C322.078 324.918 321.786 325.989 321.5 327.063V327.063ZM322.989 321.711L321.923 321.401C322.235 320.326 322.555 319.256 322.883 318.19L323.945 318.517C323.618 319.579 323.3 320.644 322.989 321.711V321.711ZM324.608 316.401L323.549 316.063C323.887 315.001 324.235 313.942 324.592 312.886L325.645 313.242C325.29 314.292 324.944 315.345 324.608 316.401V316.401ZM326.366 311.146L325.318 310.778C325.688 309.723 326.067 308.673 326.455 307.632L327.496 308.021C327.11 309.059 326.733 310.101 326.366 311.146V311.146ZM328.284 305.949L327.248 305.548C327.651 304.508 328.065 303.473 328.489 302.442L329.517 302.865C329.095 303.889 328.684 304.917 328.284 305.949V305.949ZM330.373 300.816L329.347 300.387L330.638 297.308L331.663 297.738L330.373 300.816ZM332.524 295.687L331.5 295.256L332.794 292.179L333.818 292.61L332.524 295.687ZM334.681 290.56L333.657 290.129L334.953 287.053L335.977 287.485L334.681 290.56ZM336.841 285.435L335.816 285.003L337.11 281.933L338.135 282.364L336.841 285.435V285.435ZM338.999 280.314L337.974 279.883L339.271 276.805L340.295 277.236L338.999 280.314V280.314ZM341.159 275.186L340.135 274.755L341.429 271.679L342.453 272.109L341.159 275.186ZM343.315 270.058L342.29 269.628L343.581 266.551L344.606 266.981L343.315 270.058ZM345.466 264.928L344.441 264.499L345.728 261.421L346.753 261.848L345.466 264.928ZM347.609 259.794L346.584 259.367C347.023 258.311 347.451 257.282 347.864 256.285L348.89 256.711C348.478 257.707 348.05 258.737 347.609 259.794V259.794ZM349.741 254.653L348.713 254.229C349.158 253.152 349.581 252.119 349.981 251.142L351.01 251.563C350.588 252.594 350.165 253.624 349.741 254.653V254.653ZM351.849 249.499L350.819 249.082C351.277 247.952 351.693 246.916 352.06 245.987L353.093 246.396C352.682 247.432 352.268 248.467 351.849 249.499ZM353.904 244.314L352.866 243.918C353.138 243.217 353.395 242.511 353.639 241.801C353.748 241.47 353.853 241.137 353.951 240.803L355.017 241.119C354.915 241.465 354.807 241.809 354.693 242.152C354.521 242.668 354.263 243.376 353.904 244.314ZM355.619 238.958L354.545 238.673C354.808 237.678 355.084 236.582 355.359 235.447L356.439 235.709C356.177 236.795 355.904 237.878 355.619 238.958V238.958ZM356.956 233.539L355.874 233.286C356.131 232.188 356.383 231.088 356.62 230.036L357.704 230.279C357.459 231.367 357.21 232.454 356.956 233.539V233.539ZM358.189 228.103L357.104 227.864C357.384 226.589 357.628 225.463 357.812 224.602L358.898 224.834C358.714 225.697 358.47 226.827 358.189 228.103Z" fill="#6A74EF"/>
<path d="M271.69 434.074C272.246 434.722 275.658 437.377 288.542 437.963C298.728 438.426 310.579 436.26 311.042 434.629C311.229 433.97 311.306 433.226 311.306 432.43C287.127 438.542 273.751 432.639 272.015 431.624C271.434 432.639 271.375 433.706 271.69 434.074Z" fill="url(#paint24_linear_1313_9486)"/>
<path d="M295.386 398.975C295.097 403.361 294.971 406.139 295.024 406.667C295.163 408.056 300.241 409.477 304.005 409.792C307.629 410.094 311.876 410.463 312.755 409.583C313.015 409.324 314.081 406.444 315.598 401.982C302.006 402.669 297.339 399.722 295.386 398.975V398.975Z" fill="url(#paint25_linear_1313_9486)"/>
<path d="M311.189 404.869C310.224 404.869 309.273 404.848 308.359 404.807L308.397 403.974C309.339 404.021 310.282 404.041 311.224 404.036L311.429 404.036L311.436 404.869L311.224 404.869H311.189V404.869ZM306.31 404.674C305.285 404.59 304.264 404.469 303.247 404.312L303.376 403.489C304.329 403.638 305.339 403.757 306.379 403.845L306.31 404.674V404.674ZM301.221 403.936C300.21 403.719 299.212 403.447 298.231 403.119L298.496 402.329C299.448 402.647 300.417 402.911 301.398 403.121L301.221 403.936V403.936ZM296.299 402.384L296.624 401.617C296.359 401.504 296.12 401.398 295.903 401.303C295.689 401.207 295.473 401.114 295.255 401.025L295.203 401.906C295.317 401.955 295.435 402.007 295.566 402.065C295.786 402.162 296.029 402.269 296.299 402.384V402.384ZM313.49 404.834C313.859 404.822 314.246 404.804 314.63 404.787C314.725 404.516 314.824 404.233 314.925 403.942C314.428 403.966 313.939 403.987 313.465 404.001L313.49 404.834V404.834Z" fill="#5C60D5"/>
<path d="M407.505 121.905C408.704 110.196 409.029 95.8867 404.746 88.3333C400.639 81.0928 387.61 75.0283 374.445 73.125C361.28 71.2217 335.348 74.0972 332.987 73.5417C330.626 72.9861 323.889 66.25 322.709 66.0417C321.528 65.8333 320.695 66.8517 321.042 70.1389C321.461 74.105 325.221 82.0322 325.221 82.0322L316.669 87.8828C313.407 87.7795 309.563 83.2278 307.639 84.0972C305.949 84.8611 310.272 91.5506 313.727 92.1295C321.458 93.4256 334.639 85.4728 350.825 84.54C367.011 83.6072 383.489 85.2961 388.912 100.833C390.557 105.544 390.461 110.427 389.624 114.817C394.036 114.155 401.217 114.792 407.505 121.905V121.905Z" fill="url(#paint26_radial_1313_9486)"/>
<path d="M392.084 143.819C395.216 152.066 399.561 163.032 400.139 174.306C401.838 166.817 403.611 147.361 405.209 138.148C405.752 135.016 406.786 128.928 407.505 121.906C401.217 114.792 394.036 114.155 389.624 114.818C388.01 123.282 383.635 129.908 383.635 129.908C383.635 129.908 388.681 134.861 392.084 143.819V143.819Z" fill="url(#paint27_linear_1313_9486)"/>
<path d="M406.827 128.234C406.728 128.235 406.632 128.209 406.547 128.159C406.462 128.11 406.391 128.039 406.343 127.953C401.68 119.739 391.351 118.557 388.845 118.957C388.699 118.98 388.551 118.945 388.431 118.858C388.312 118.772 388.232 118.641 388.209 118.496C388.185 118.35 388.221 118.201 388.307 118.082C388.394 117.963 388.524 117.883 388.67 117.859C391.344 117.436 402.357 118.681 407.309 127.404C407.357 127.489 407.382 127.585 407.382 127.682C407.381 127.779 407.355 127.874 407.307 127.958C407.258 128.042 407.188 128.112 407.103 128.16C407.019 128.209 406.924 128.234 406.827 128.234Z" fill="#F2D265"/>
<path d="M361.505 118.241C361.409 122.13 358.913 133.518 357.154 138.056C355.394 142.593 366.597 139.444 372.524 137.778C378.45 136.111 382.801 130.926 382.801 130.926C382.801 130.926 378.912 123.241 378.172 114.815C377.431 106.389 371.505 106.667 368.265 107.871C365.024 109.074 361.505 118.241 361.505 118.241V118.241Z" fill="url(#paint28_linear_1313_9486)"/>
<path d="M346.625 92.9005C342.663 103.565 338.542 103.958 338.681 105.694C338.82 107.431 342.292 109.514 344.931 109.097C347.57 108.681 346.625 92.9005 346.625 92.9005Z" fill="url(#paint29_linear_1313_9486)"/>
<path d="M350.95 85.2778C345.487 90.4628 337.811 116.741 350.256 122.963C361.274 128.472 372.894 111.111 372.894 111.111C372.894 111.111 386.876 90.8333 372.246 81.6667C358.97 73.3483 350.95 85.2778 350.95 85.2778Z" fill="url(#paint30_linear_1313_9486)"/>
<path d="M344.496 114.902C344.675 115.087 345.084 115.181 345.426 115.216C345.785 115.245 346.148 115.221 346.48 115.118C347.154 114.921 347.64 114.415 347.935 113.788L347.936 113.786C347.965 113.721 348.008 113.662 348.061 113.614C348.114 113.566 348.176 113.529 348.243 113.505C348.311 113.482 348.382 113.472 348.454 113.477C348.525 113.482 348.594 113.502 348.658 113.535C348.722 113.567 348.778 113.612 348.823 113.667C348.869 113.723 348.903 113.786 348.923 113.855C348.944 113.923 348.95 113.995 348.941 114.066C348.933 114.137 348.91 114.206 348.875 114.268C348.649 114.673 348.355 115.063 347.967 115.352C347.588 115.643 347.145 115.841 346.676 115.931C346.222 116.02 345.755 116.01 345.306 115.902C345.082 115.85 344.866 115.768 344.663 115.659C344.465 115.547 344.244 115.405 344.113 115.145C344.089 115.096 344.082 115.041 344.096 114.988C344.109 114.935 344.14 114.889 344.185 114.858C344.229 114.826 344.283 114.811 344.337 114.816C344.391 114.821 344.442 114.845 344.48 114.884L344.496 114.902V114.902Z" fill="#BE4118"/>
<path d="M349.234 100.256C348.94 100.256 348.659 100.14 348.451 99.9333C348.243 99.7268 348.125 99.4465 348.122 99.1533L348.122 99.0878C348.114 98.3211 348.096 96.5261 349.662 94.3917C349.747 94.2708 349.855 94.1682 349.98 94.0897C350.105 94.0112 350.245 93.9584 350.391 93.9346C350.537 93.9107 350.686 93.9161 350.829 93.9505C350.973 93.9849 351.108 94.0477 351.228 94.135C351.347 94.2224 351.447 94.3327 351.523 94.4593C351.599 94.586 351.649 94.7266 351.67 94.8729C351.691 95.0191 351.683 95.1681 351.646 95.311C351.609 95.454 351.543 95.5881 351.454 95.7055C350.326 97.2439 350.337 98.4289 350.344 99.0655L350.345 99.1355C350.346 99.2815 350.318 99.4262 350.263 99.5614C350.209 99.6967 350.128 99.8198 350.025 99.9238C349.923 100.028 349.801 100.111 349.667 100.168C349.533 100.224 349.388 100.254 349.242 100.256H349.234V100.256Z" fill="#5C60D5"/>
<path d="M379.306 109.444C379.931 103.889 391.753 98.9861 385.642 83.6389C382.154 74.8789 374.514 71.3194 367.787 71.4233C362.699 71.5017 359.792 73.1944 356.667 72.2917C353.542 71.3889 348.264 69.0972 345.486 71.0417C342.708 72.9861 344.167 76.1111 342.639 77.5694C341.111 79.0278 333.333 77.0833 331.875 81.7361C331.349 83.4139 332.639 89.2361 343.125 89.1667C353.611 89.0972 359.514 82.5 363.194 87.0833C366.875 91.6667 358.681 96.3194 359.653 101.111C359.844 102.054 360.452 102.361 361.251 102.353C362.754 102.129 366.758 96.9561 369.907 99.6989C372.06 101.574 371.528 106.875 367.5 108.194C367.686 110.669 369.306 113.194 370.972 115.035C372.358 116.566 376.619 119.431 379.236 116.945C380.163 116.065 379.017 112.009 379.306 109.444Z" fill="url(#paint31_linear_1313_9486)"/>
<path d="M349.248 95.01C348.319 96.5178 348.15 97.8067 348.125 98.6094C349.862 97.8689 349.663 96.0372 349.248 95.01Z" fill="#6A74EF"/>
<path d="M353.751 95.4583C353.678 95.4584 353.606 95.4434 353.539 95.4141C353.472 95.3848 353.412 95.342 353.363 95.2883C353.313 95.2346 353.276 95.1713 353.252 95.1022C353.228 95.0332 353.219 94.96 353.225 94.8872C353.306 93.9128 353.045 93.1811 352.45 92.7122C351.661 92.0922 350.486 92.0833 350.237 92.1678C350.105 92.2119 349.96 92.2015 349.835 92.1388C349.71 92.0762 349.615 91.9664 349.57 91.8336C349.526 91.7009 349.537 91.556 349.599 91.4309C349.662 91.3058 349.772 91.2108 349.905 91.1667C350.447 90.9856 351.991 91.0094 353.102 91.8828C353.715 92.365 354.417 93.2928 354.277 94.975C354.266 95.1067 354.206 95.2295 354.108 95.3189C354.011 95.4084 353.883 95.4581 353.751 95.4583V95.4583Z" fill="#7B2E26"/>
<path d="M377.154 77.4072C377.806 77.3272 378.441 77.5416 379.014 77.8194C379.594 78.1151 380.109 78.5243 380.529 79.0228C380.956 79.5292 381.26 80.1273 381.418 80.7705C381.564 81.4122 381.553 82.0839 381.321 82.685C381.085 82.0861 380.871 81.5589 380.599 81.075C380.333 80.6002 380.024 80.1513 379.675 79.7339C379.327 79.3172 378.942 78.9227 378.524 78.5389C378.102 78.1544 377.67 77.7727 377.154 77.4072V77.4072ZM382.709 85C383.07 84.9994 383.395 85.1928 383.688 85.3772C383.976 85.5778 384.239 85.8121 384.472 86.075C384.94 86.6085 385.289 87.2361 385.495 87.9155C385.701 88.5989 385.75 89.3466 385.595 90.0505C385.44 90.7522 385.088 91.4022 384.562 91.8522C384.682 91.1716 384.755 90.5594 384.726 89.9628C384.701 89.3763 384.602 88.7954 384.431 88.2339C384.256 87.6604 384.03 87.1036 383.757 86.57C383.616 86.2983 383.473 86.0211 383.303 85.7583C383.134 85.49 382.966 85.2239 382.709 85V85Z" fill="#8F3421"/>
<path d="M337.432 80.5556C337.619 81.0628 338.057 81.4084 338.491 81.6906C338.932 81.9756 339.412 82.1967 339.904 82.3789C340.892 82.7417 341.93 82.9517 342.972 83.0645C345.061 83.3039 347.168 83.1462 349.221 82.7167C351.289 82.285 353.353 81.7562 355.447 81.2884C357.543 80.8417 359.681 80.435 361.905 80.4639C363.011 80.4956 364.154 80.6539 365.229 81.1228C365.773 81.3579 366.275 81.6793 366.716 82.0745C367.139 82.4589 367.533 82.8973 367.842 83.3962C368.483 84.3878 368.747 85.6228 368.633 86.7678C368.533 87.9217 368.136 88.9873 367.653 89.9706C366.677 91.9434 365.344 93.6428 364.056 95.3389C363.403 96.1817 362.748 97.0195 362.174 97.9078C361.891 98.3523 361.627 98.8112 361.437 99.3001C361.247 99.7801 361.122 100.327 361.319 100.834C361.067 100.35 361.133 99.7612 361.278 99.2467C361.432 98.7245 361.668 98.2345 361.921 97.7589C362.433 96.81 363.027 95.915 363.613 95.0223C364.798 93.2517 366.014 91.4962 366.867 89.6045C367.281 88.6595 367.597 87.675 367.661 86.6956C367.729 85.7167 367.494 84.7612 366.957 83.9662C366.685 83.5623 366.363 83.1951 365.998 82.8734C365.64 82.5586 365.234 82.3036 364.795 82.1184C363.906 81.7367 362.895 81.5962 361.876 81.5745C359.826 81.5245 357.734 81.9084 355.661 82.3156C353.579 82.7189 351.503 83.2284 349.374 83.5673C347.241 83.9367 345.028 83.9812 342.892 83.6012C341.826 83.4017 340.776 83.1023 339.791 82.6506C339.299 82.4234 338.822 82.1595 338.392 81.8278C337.978 81.4917 337.565 81.0834 337.432 80.5556V80.5556ZM344.098 80C345.123 80.0873 346.127 79.9756 347.109 79.7612C348.093 79.5562 349.055 79.2556 350.012 78.9373C351.922 78.2806 353.812 77.5284 355.733 76.8178C357.662 76.1317 359.624 75.4545 361.693 75.1189C362.723 74.9512 363.786 74.8739 364.839 74.9984C365.885 75.1267 366.934 75.49 367.709 76.1806C366.796 75.6995 365.797 75.5206 364.808 75.5428C363.818 75.5506 362.834 75.7373 361.864 75.9689C359.926 76.4573 358.025 77.16 356.113 77.8617C354.195 78.5467 352.267 79.2639 350.256 79.7667C349.252 80.0212 348.226 80.215 347.186 80.2989C346.148 80.37 345.078 80.33 344.098 80V80Z" fill="#BE4118"/>
<path d="M371.945 108.264C372.267 109.127 372.726 109.874 373.205 110.593C373.695 111.304 374.243 111.958 374.86 112.508C375.478 113.053 376.165 113.498 376.948 113.743C377.729 113.992 378.595 114.036 379.522 113.952C378.753 114.473 377.758 114.721 376.77 114.592C375.779 114.472 374.845 113.991 374.122 113.338C373.389 112.686 372.838 111.876 372.45 111.013C372.075 110.153 371.81 109.201 371.945 108.264V108.264Z" fill="#8F3421"/>
<path d="M263.153 130.796C263.153 130.796 268.454 131.897 275.092 128.868C280.489 126.405 281.2 125.231 281.2 125.231L272.429 117.491L263.153 130.796V130.796Z" fill="#724A5F"/>
<path d="M336.348 63.5777C333.169 59.1344 326.993 58.1083 322.552 61.2855C321.011 62.3866 319.821 63.909 319.124 65.67L281.969 93.5305L281.963 93.5222C281.963 93.5222 276.754 97.54 271.501 98.9239C265.742 100.441 259.757 96.8572 252.725 102.666C244.819 109.198 250.415 121.927 250.415 121.927C250.415 121.927 256.229 113.047 257.968 112.402C259.554 111.816 261.617 113.194 261.617 113.194L281.187 127.471C281.187 127.471 282.666 120.834 285.091 114.913C287.366 109.359 289.351 106.798 290.572 105.736L329.427 79.1527C331.097 78.9646 332.691 78.352 334.057 77.3733C338.502 74.1972 339.525 68.0205 336.348 63.5777V63.5777ZM331.01 73.1161C330.006 73.8342 328.758 74.1241 327.54 73.922C326.322 73.7199 325.234 73.0423 324.516 72.0383C323.799 71.0337 323.51 69.7855 323.712 68.5678C323.915 67.3502 324.592 66.2627 325.596 65.5444C327.685 64.0489 330.593 64.5322 332.089 66.6227C332.445 67.1199 332.699 67.6823 332.837 68.2777C332.976 68.8731 332.995 69.4899 332.895 70.0929C332.795 70.6959 332.577 71.2732 332.253 71.7919C331.93 72.3107 331.508 72.7606 331.01 73.1161V73.1161Z" fill="url(#paint32_linear_1313_9486)"/>
<path d="M271.475 102.491C271.646 102.221 271.867 101.987 272.128 101.802C272.388 101.618 272.682 101.487 272.993 101.416C273.304 101.346 273.626 101.337 273.941 101.391C274.255 101.445 274.556 101.56 274.826 101.73L282.502 106.562C282.772 106.732 283.005 106.954 283.19 107.214C283.374 107.474 283.505 107.768 283.576 108.079C283.646 108.39 283.655 108.712 283.601 109.027C283.547 109.341 283.432 109.642 283.262 109.912L279.551 115.805C279.381 116.075 279.16 116.309 278.9 116.494C278.639 116.678 278.345 116.81 278.034 116.88C277.723 116.951 277.401 116.96 277.087 116.906C276.772 116.852 276.471 116.737 276.202 116.567L268.526 111.734C268.256 111.565 268.022 111.343 267.838 111.083C267.653 110.823 267.522 110.529 267.451 110.218C267.38 109.907 267.372 109.585 267.425 109.27C267.479 108.956 267.594 108.655 267.764 108.385L271.475 102.491V102.491Z" fill="#724A5F"/>
<path d="M280.119 108.96C280.204 108.825 280.315 108.708 280.445 108.616C280.575 108.524 280.722 108.458 280.877 108.423C281.033 108.388 281.194 108.383 281.351 108.411C281.508 108.438 281.659 108.495 281.793 108.581C281.928 108.665 282.045 108.776 282.138 108.906C282.23 109.036 282.296 109.183 282.331 109.338C282.367 109.494 282.371 109.655 282.344 109.812C282.317 109.969 282.26 110.119 282.175 110.254L279.392 114.676C279.22 114.948 278.947 115.141 278.633 115.213C278.318 115.284 277.988 115.228 277.716 115.056C277.443 114.884 277.251 114.611 277.179 114.297C277.108 113.983 277.164 113.654 277.336 113.381L280.119 108.96V108.96ZM277.292 107.18C277.469 106.919 277.741 106.737 278.049 106.672C278.358 106.608 278.68 106.665 278.947 106.834C279.213 107.002 279.404 107.267 279.479 107.573C279.554 107.88 279.507 108.203 279.348 108.476L276.564 112.896C276.48 113.031 276.369 113.148 276.239 113.24C276.108 113.332 275.961 113.398 275.806 113.433C275.65 113.468 275.489 113.473 275.332 113.446C275.174 113.419 275.024 113.361 274.889 113.276C274.616 113.104 274.423 112.832 274.352 112.518C274.28 112.204 274.336 111.874 274.507 111.601L277.292 107.18ZM274.464 105.401C274.549 105.265 274.66 105.148 274.79 105.056C274.92 104.964 275.067 104.898 275.222 104.863C275.378 104.827 275.539 104.823 275.696 104.85C275.853 104.876 276.004 104.934 276.139 105.019C276.274 105.104 276.391 105.214 276.483 105.345C276.575 105.475 276.641 105.622 276.677 105.777C276.712 105.933 276.717 106.094 276.69 106.251C276.663 106.408 276.606 106.559 276.521 106.694L273.737 111.116C273.652 111.251 273.542 111.368 273.411 111.46C273.281 111.552 273.134 111.618 272.979 111.653C272.823 111.688 272.662 111.692 272.505 111.665C272.348 111.638 272.197 111.581 272.062 111.496C271.79 111.324 271.596 111.051 271.525 110.737C271.453 110.423 271.509 110.094 271.68 109.821L274.464 105.401V105.401ZM271.638 103.621C271.723 103.486 271.834 103.369 271.964 103.277C272.094 103.184 272.241 103.118 272.396 103.083C272.552 103.047 272.713 103.043 272.87 103.07C273.027 103.096 273.178 103.154 273.313 103.239C273.585 103.411 273.779 103.684 273.85 103.998C273.922 104.313 273.866 104.642 273.694 104.916L270.91 109.336C270.738 109.608 270.466 109.801 270.152 109.873C269.838 109.944 269.508 109.888 269.236 109.717C268.963 109.545 268.77 109.272 268.698 108.958C268.627 108.644 268.683 108.314 268.854 108.041L271.638 103.621V103.621ZM287.882 102.777C287.446 102.777 287.016 102.673 286.629 102.473C286.241 102.274 285.906 101.984 285.653 101.629L283.913 99.1894C283.488 98.595 283.322 97.8705 283.442 97.15C283.562 96.4294 283.956 95.7989 284.551 95.3744L313.611 74.6472C314.073 74.3157 314.628 74.1377 315.197 74.1383C316.081 74.1383 316.913 74.5672 317.426 75.2855L319.167 77.7255C319.377 78.0176 319.526 78.3482 319.607 78.6984C319.688 79.0485 319.699 79.4112 319.638 79.7655C319.58 80.1202 319.452 80.4598 319.261 80.7645C319.071 81.0693 318.822 81.3333 318.528 81.5411L289.468 102.268C289.006 102.6 288.451 102.778 287.882 102.777V102.777ZM315.197 75.25C314.859 75.25 314.533 75.3544 314.257 75.5516L285.197 96.2789C285.023 96.4024 284.875 96.5591 284.762 96.7401C284.649 96.9211 284.573 97.1227 284.538 97.3333C284.466 97.7611 284.566 98.1911 284.817 98.5444L286.558 100.985C287.057 101.687 288.117 101.868 288.823 101.364L317.883 80.6372C318.058 80.5139 318.206 80.3571 318.319 80.1761C318.432 79.9951 318.508 79.7934 318.543 79.5827C318.579 79.3723 318.572 79.1568 318.524 78.9489C318.476 78.7409 318.387 78.5445 318.263 78.3711L316.522 75.9311C316.371 75.7204 316.172 75.5486 315.942 75.4302C315.712 75.3117 315.456 75.2499 315.197 75.25V75.25Z" fill="#5C60D5"/>
<path d="M308.471 71.9795C307.545 72.2739 305.183 72.855 304.628 75.5067C304.223 77.4473 304.895 80.3912 305.653 81.9473C306.41 83.5034 308.668 85.4162 310.098 84.5045C311.063 83.8895 309.287 80.9117 309.018 79.5923C308.218 75.6812 308.471 71.9795 308.471 71.9795V71.9795Z" fill="url(#paint33_linear_1313_9486)"/>
<path d="M311.373 69.7922C310.993 69.685 308.143 70.0506 307.545 72.2739C307.193 73.5839 307.123 77.1978 308.26 79.4661C309.397 81.7345 312.124 83.8483 312.971 83.3356C314.359 82.4945 313.475 80.8961 313.475 80.8961C313.475 80.8961 311.373 76.5639 311.456 74.5872C311.54 72.6106 311.373 69.7922 311.373 69.7922V69.7922Z" fill="url(#paint34_linear_1313_9486)"/>
<path d="M314.468 68.1289C313.602 67.9839 310.719 67.7922 310.321 72.1055C309.923 76.4189 312.634 83.0411 314.359 82.4939C316.084 81.9467 314.441 77.4783 314.442 74.96C314.443 72.4422 314.468 68.1289 314.468 68.1289Z" fill="url(#paint35_linear_1313_9486)"/>
<path d="M318.028 68.2372C317.008 70.0872 317.555 76.1017 316 76.4383C313.975 76.8761 312.832 69.2889 314.401 66.6383C315.621 64.5778 319.28 65.335 319.28 65.335L318.028 68.2372Z" fill="url(#paint36_linear_1313_9486)"/>
<path d="M307.949 72.3745C307.735 73.1723 307.683 74.0678 307.677 74.9378C307.673 75.8141 307.754 76.6887 307.918 77.5495C308.082 78.4162 308.37 79.2128 308.806 79.9928C309.224 80.7662 309.71 81.5128 310.337 82.1134L310.339 82.1151C310.373 82.146 310.393 82.1891 310.395 82.2348C310.397 82.2806 310.381 82.3252 310.35 82.3589C310.319 82.3927 310.276 82.4128 310.23 82.4147C310.184 82.4167 310.14 82.4004 310.106 82.3695C309.406 81.7573 308.869 81.0023 308.4 80.2223C307.913 79.4366 307.556 78.5769 307.344 77.6767C307.125 76.7823 307.01 75.8701 306.967 74.954C306.934 74.0356 306.936 73.1217 307.141 72.1728C307.153 72.1193 307.175 72.0686 307.206 72.0236C307.237 71.9786 307.277 71.9401 307.323 71.9105C307.369 71.8808 307.421 71.8605 307.474 71.8507C307.528 71.8409 307.584 71.8418 307.637 71.8534C307.691 71.865 307.741 71.8869 307.786 71.9181C307.831 71.9493 307.87 71.989 307.899 72.035C307.929 72.081 307.949 72.1324 307.959 72.1863C307.969 72.2402 307.968 72.2954 307.956 72.3489L307.952 72.3678L307.949 72.3745V72.3745ZM311.445 69.7389C310.861 70.6356 310.671 71.7939 310.631 72.9262C310.6 74.0701 310.734 75.2301 310.959 76.3689C311.189 77.5078 311.511 78.6339 311.949 79.7106C312.17 80.2478 312.419 80.7745 312.722 81.2628C313.024 81.7362 313.386 82.2378 313.866 82.4273L313.881 82.4334C313.958 82.4634 313.995 82.5501 313.965 82.6267C313.95 82.6629 313.922 82.6921 313.887 82.708C313.851 82.7239 313.811 82.7252 313.774 82.7117C313.131 82.4739 312.763 81.9467 312.415 81.4617C312.078 80.9595 311.801 80.4262 311.553 79.8817C311.06 78.7912 310.686 77.6528 310.406 76.4901C310.13 75.3267 309.946 74.1351 309.932 72.9189C309.934 71.7145 310.069 70.4367 310.732 69.3062L310.736 69.3001C310.792 69.2047 310.883 69.1355 310.99 69.1076C311.097 69.0798 311.211 69.0955 311.306 69.1514C311.402 69.2074 311.471 69.2989 311.499 69.4058C311.526 69.5128 311.511 69.6264 311.455 69.7217L311.445 69.7389V69.7389ZM314.213 75.4062C313.653 74.2012 313.42 72.8817 313.314 71.5751C313.225 70.2628 313.26 68.9373 313.563 67.6145C313.575 67.5611 313.598 67.5107 313.63 67.4661C313.661 67.4214 313.702 67.3835 313.748 67.3544C313.794 67.3253 313.846 67.3056 313.9 67.2965C313.954 67.2874 314.009 67.2889 314.063 67.3012C314.116 67.3134 314.166 67.336 314.211 67.3677C314.256 67.3994 314.294 67.4396 314.323 67.486C314.352 67.5324 314.371 67.584 314.381 67.638C314.39 67.692 314.388 67.7472 314.376 67.8006L314.37 67.8228L314.368 67.8306C314.024 69.0073 313.909 70.2867 313.925 71.5462C313.955 72.8067 314.107 74.0828 314.571 75.2528C314.591 75.3009 314.59 75.3547 314.57 75.4023C314.549 75.4499 314.511 75.4875 314.463 75.5067C314.416 75.5249 314.364 75.5246 314.318 75.5059C314.272 75.4873 314.234 75.4516 314.213 75.4062V75.4062Z" fill="#9B6D6D"/>
<path d="M320.34 85.3712L316.669 87.8828C313.408 87.7795 309.563 83.2278 307.639 84.0973C305.949 84.8612 310.272 91.5506 313.728 92.1295C316.283 92.5578 319.435 91.9734 323.093 90.9689C323.153 87.5667 321.399 86.0023 320.34 85.3712Z" fill="url(#paint37_linear_1313_9486)"/>
<path d="M313.647 149.424C303.799 153.962 295.061 158.024 294.375 157.315C293.821 156.743 295.579 152.778 298.079 141.019C300.579 129.26 303.125 108.334 302.153 104.167C301.447 101.143 300.009 99.2811 300.009 99.2811L295.779 102.175C295.779 102.175 293.751 100.487 291.945 96.1811C290.14 91.8755 290.765 88.1255 291.161 86.6394L292.509 85.6283C292.509 85.6283 290.594 85.0372 289.584 85.3478C288.682 85.6255 288.219 86.76 288.219 86.76C288.219 86.76 287.362 86.4589 286.355 87.3616C285.398 88.22 285.348 89.5144 285.348 89.5144C285.348 89.5144 283.589 89.5378 282.848 92.2228C282.107 94.9078 283.543 103.519 283.172 103.889C282.801 104.26 281.459 100.927 281.089 99.3522C280.718 97.7778 280.715 94.415 279.382 95.2872C278.049 96.1594 276.69 100.741 279.527 107.726C282.363 114.71 291.135 115.648 291.691 117.13C292.247 118.612 282.802 142.037 280.488 147.686C278.173 153.334 274.469 171.112 279.932 175.278C285.654 179.642 303.36 175.924 317.589 172.5C320.664 159.375 316.275 152.394 313.647 149.424Z" fill="url(#paint38_radial_1313_9486)"/>
<path d="M288.405 86.8033C288.204 87.8089 288.129 88.8595 288.101 89.8961C288.079 90.9354 288.122 91.9751 288.231 93.0089C288.447 95.0728 288.93 97.1056 289.696 99.0189C289.737 99.1215 289.736 99.2363 289.692 99.3379C289.649 99.4395 289.566 99.5197 289.464 99.5608C289.361 99.6019 289.246 99.6006 289.145 99.5571C289.043 99.5136 288.963 99.4315 288.922 99.3289L288.916 99.315C288.191 97.2972 287.771 95.1839 287.625 93.0622C287.551 92.0019 287.544 90.9378 287.606 89.8767C287.673 88.8156 287.784 87.7639 288.032 86.7156C288.043 86.666 288.073 86.6227 288.116 86.5953C288.159 86.5678 288.21 86.5584 288.26 86.5692C288.31 86.5799 288.353 86.6099 288.38 86.6526C288.408 86.6953 288.417 86.7471 288.406 86.7967L288.405 86.8033V86.8033ZM285.538 89.54C285.436 90.5283 285.404 91.5411 285.392 92.5433C285.382 93.5467 285.411 94.5501 285.48 95.5511C285.629 97.5395 285.909 99.5522 286.651 101.348L286.652 101.353C286.675 101.404 286.687 101.459 286.689 101.514C286.69 101.57 286.68 101.625 286.659 101.677C286.638 101.729 286.607 101.776 286.568 101.816C286.529 101.855 286.482 101.887 286.431 101.908C286.379 101.929 286.324 101.94 286.268 101.939C286.213 101.939 286.158 101.927 286.107 101.905C286.055 101.883 286.009 101.851 285.971 101.811C285.932 101.77 285.902 101.723 285.882 101.671L285.877 101.659C285.505 100.672 285.285 99.6556 285.134 98.6389C284.983 97.6217 284.906 96.6011 284.872 95.5822C284.84 94.5649 284.848 93.5467 284.896 92.53C284.946 91.5128 285.015 90.505 285.158 89.4878C285.164 89.4373 285.19 89.3914 285.23 89.36C285.27 89.3286 285.321 89.3144 285.371 89.3206C285.422 89.3267 285.468 89.3526 285.499 89.3926C285.53 89.4326 285.545 89.4834 285.539 89.5339L285.538 89.54V89.54Z" fill="#9B6D6D"/>
<path d="M337.154 168.704C339.006 171.111 338.079 180.926 338.079 180.926C338.079 180.926 345.301 182.871 351.227 176.389C357.154 169.907 350.394 137.222 350.394 137.222C350.394 137.222 349.746 136.574 339.931 138.611C334.967 139.641 323.726 144.781 313.647 149.424C316.275 152.394 320.664 159.374 317.588 172.499C327.894 170.019 336.376 167.692 337.154 168.704V168.704Z" fill="url(#paint39_linear_1313_9486)"/>
<path d="M323.003 171.734C322.915 171.735 322.828 171.714 322.75 171.674C322.672 171.634 322.604 171.576 322.552 171.505C322.501 171.434 322.467 171.351 322.453 171.264C322.44 171.177 322.447 171.088 322.475 171.005C326.601 158.466 320.378 149.137 318.25 147.615C318.135 147.527 318.059 147.398 318.037 147.255C318.016 147.112 318.051 146.967 318.135 146.849C318.219 146.731 318.346 146.651 318.488 146.626C318.631 146.6 318.777 146.631 318.897 146.711C321.172 148.338 327.851 158.223 323.531 171.352C323.454 171.586 323.236 171.734 323.003 171.734V171.734Z" fill="#F2D265"/>
<path d="M346.894 137.361C347.36 137.304 349.867 136.848 353.091 136.238C357.846 135.338 364.993 135.124 368.635 134.352C373.102 133.404 378.13 130.704 381.518 129.811C382.765 129.482 383.678 129.259 384.061 129.22C388.449 130.092 396.052 137.428 398.737 147.799C401.552 158.672 403.403 170.138 394.653 199.027C388.155 220.482 388.403 223.611 388.403 223.611C388.403 223.611 369.91 233.216 354.93 231.805C339.951 230.394 331.597 227.916 331.597 227.916C331.597 227.916 336.458 204.444 337.292 193.749C338.125 183.055 338.267 177.867 338.267 177.867C338.267 177.867 342.815 178.339 345.857 175.648C350.278 171.736 351.181 159.097 349.236 145.324C348.254 138.366 346.894 137.361 346.894 137.361V137.361Z" fill="url(#paint40_linear_1313_9486)"/>
<path d="M362.709 169.722C364.376 172.5 372.749 173.402 379.792 171.944C386.505 170.556 390.209 168.194 391.459 164.028C392.709 159.861 391.691 138.796 381.519 129.811C378.131 130.704 372.27 132.386 367.802 133.333C364.16 134.106 357.846 135.338 353.091 136.238C355.066 139.159 358.197 144.627 360.07 152.5C362.084 160.965 361.579 167.839 362.709 169.722V169.722Z" fill="url(#paint41_linear_1313_9486)"/>
<path d="M342.607 180.608L342.365 179.523C343.479 179.276 344.511 178.945 345.433 178.541L345.88 179.558C344.892 179.991 343.79 180.345 342.607 180.608V180.608ZM347.915 178.446L347.293 177.526C348.009 177.041 348.678 176.262 349.281 175.211L350.244 175.763C349.558 176.962 348.774 177.865 347.915 178.446V178.446ZM351.228 173.682L350.194 173.277C350.555 172.355 350.879 171.308 351.158 170.166L352.237 170.429C351.947 171.619 351.608 172.714 351.228 173.682ZM352.699 168.219L351.605 168.024C351.788 166.997 351.94 165.9 352.058 164.763L353.163 164.877C353.049 165.996 352.894 167.111 352.699 168.219V168.219ZM353.348 162.639L352.239 162.571C352.305 161.502 352.344 160.391 352.354 159.268L353.465 159.279C353.455 160.421 353.415 161.552 353.348 162.639V162.639ZM352.338 157.064C352.312 155.962 352.261 154.86 352.184 153.76L353.293 153.682C353.371 154.801 353.423 155.931 353.449 157.038L352.338 157.064V157.064ZM351.998 151.564C351.888 150.466 351.754 149.371 351.596 148.28L352.695 148.12C352.855 149.218 352.992 150.34 353.103 151.453L351.998 151.564V151.564ZM351.247 146.102C351.056 145.016 350.84 143.935 350.599 142.859L351.683 142.616C351.925 143.694 352.147 144.803 352.342 145.91L351.247 146.102ZM350.081 140.716C349.8 139.636 349.35 138.022 349.025 136.995L350.11 136.797C350.441 137.842 350.871 139.338 351.157 140.437L350.081 140.716ZM372.337 176.523C371.533 176.523 370.734 176.5 369.963 176.454L370.029 175.345C371.092 175.408 372.203 175.426 373.328 175.401L373.354 176.511C373.015 176.519 372.676 176.523 372.337 176.523V176.523ZM375.612 176.399L375.528 175.292C376.626 175.209 377.72 175.083 378.808 174.914L378.98 176.012C377.863 176.185 376.739 176.314 375.612 176.399V176.399ZM367.704 176.248C366.477 176.093 365.345 175.876 364.342 175.601L364.636 174.529C365.588 174.789 366.667 174.997 367.843 175.145L367.704 176.248ZM381.202 175.599L380.971 174.513C382.122 174.268 383.199 173.997 384.172 173.707L384.489 174.772C383.405 175.091 382.308 175.367 381.202 175.599V175.599ZM362.155 174.817C361.009 174.279 360.197 173.632 359.74 172.891C359.63 172.71 359.537 172.519 359.462 172.321L360.498 171.919C360.557 172.071 360.62 172.202 360.685 172.307C361.027 172.861 361.68 173.367 362.627 173.811L362.155 174.817V174.817ZM386.642 174.043L386.243 173.006C387.334 172.586 388.319 172.114 389.17 171.604L389.742 172.557C388.835 173.101 387.793 173.6 386.642 174.043V174.043ZM391.629 171.208L390.906 170.364C391.747 169.644 392.414 168.86 392.948 167.967L393.902 168.536C393.314 169.521 392.549 170.419 391.629 171.208ZM358.942 170.026C358.806 169.063 358.7 167.936 358.585 166.669L359.692 166.569C359.805 167.821 359.91 168.933 360.042 169.87L358.942 170.026V170.026ZM394.873 166.401L393.818 166.053L393.883 165.848C394.085 165.194 394.247 164.144 394.34 162.892L395.448 162.974C395.347 164.327 395.174 165.433 394.944 166.176L394.873 166.401V166.401ZM358.383 164.45C358.279 163.344 358.16 162.24 358.025 161.138L359.127 161.002C359.254 162.023 359.368 163.086 359.488 164.345L358.383 164.45ZM395.54 160.71L394.429 160.698L394.432 160.226C394.432 159.31 394.402 158.356 394.345 157.391L395.454 157.325C395.513 158.312 395.543 159.288 395.543 160.227L395.54 160.71ZM357.726 158.94C357.563 157.845 357.375 156.754 357.162 155.667L358.253 155.453C358.464 156.526 358.657 157.644 358.825 158.776L357.726 158.94ZM394.169 155.188C394.058 154.089 393.914 152.993 393.738 151.902L394.835 151.725C395.015 152.834 395.163 153.962 395.275 155.077L394.169 155.188V155.188ZM356.699 153.504C356.45 152.427 356.171 151.357 355.862 150.296L356.929 149.986C357.243 151.067 357.527 152.156 357.782 153.253L356.699 153.504ZM393.342 149.729C393.122 148.647 392.867 147.572 392.579 146.507L393.651 146.216C393.946 147.305 394.206 148.403 394.43 149.508L393.342 149.729ZM355.207 148.184C354.86 147.135 354.484 146.096 354.079 145.068L355.113 144.661C355.525 145.708 355.908 146.767 356.261 147.837L355.207 148.184V148.184ZM391.954 144.391C391.618 143.342 391.244 142.305 390.832 141.284L391.862 140.868C392.284 141.915 392.668 142.977 393.012 144.052L391.954 144.391ZM353.229 143.028C352.785 142.015 352.307 141.008 351.809 140.035L352.797 139.529C353.31 140.532 353.794 141.55 354.247 142.581L353.229 143.028V143.028ZM389.953 139.266C389.488 138.271 388.978 137.297 388.427 136.346L389.387 135.787C389.955 136.766 390.48 137.77 390.959 138.795L389.953 139.266ZM387.262 134.487C386.651 133.578 385.992 132.702 385.288 131.863L386.138 131.148C386.867 132.017 387.55 132.925 388.183 133.866L387.262 134.487V134.487ZM340.229 179.884C339.549 179.962 338.865 180.01 338.18 180.026C338.165 180.358 338.147 180.73 338.126 181.139C338.873 181.123 339.618 181.073 340.36 180.988L340.229 179.884Z" fill="#6A74EF"/>
<path d="M351.731 137.546C351.551 137.228 351.367 136.912 351.18 136.597C350.77 136.674 350.381 136.746 350.016 136.813C350.167 137.248 350.18 137.883 350.434 138.333L351.731 137.546ZM384.588 129.443C384.544 129.399 384.497 129.358 384.453 129.314C384.324 129.278 384.193 129.247 384.062 129.221C383.851 129.242 383.476 129.321 382.978 129.44C383.254 129.698 383.532 129.954 383.798 130.224L384.588 129.443V129.443Z" fill="#6A74EF"/>
<path d="M332.738 222.21C337.338 224.074 361.32 225.463 372.894 222.87C384.468 220.277 389.528 217.443 389.528 217.443C389.528 217.443 390.996 216.991 391.134 221.388C391.263 225.47 389.19 228.055 389.19 228.055C389.19 228.055 370.209 237.87 349.746 237.314C330.698 236.797 329.609 234.722 329.609 234.722L332.738 222.21V222.21Z" fill="url(#paint42_linear_1313_9486)"/>
<path d="M346.783 229.306C349.144 228.935 352.804 224.273 352.804 224.273C352.804 224.273 345.828 224.012 343.499 223.855C341.17 223.698 336.162 223.031 332.738 222.21C324.781 224.628 318.356 227.87 318.356 227.87C318.356 227.87 323.171 229.166 329.609 229.537C336.046 229.907 344.421 229.676 346.783 229.306Z" fill="#5B252C"/>
<path d="M334.544 237.861C334.544 241.875 331.29 245.129 327.276 245.129C323.261 245.129 320.007 241.875 320.007 237.861V216.194C320.007 212.179 323.261 208.926 327.276 208.926C331.29 208.926 334.544 212.179 334.544 216.194V237.861Z" fill="#F2D265"/>
<path d="M325.498 218.194C325.498 216.306 323.961 214.768 322.072 214.768C321.342 214.768 320.631 215.003 320.046 215.439C320.021 215.687 320.007 215.939 320.007 216.193V216.76C320.082 216.76 320.156 216.746 320.225 216.717C320.294 216.688 320.356 216.645 320.408 216.592C320.622 216.366 320.88 216.187 321.167 216.064C321.453 215.942 321.761 215.879 322.072 215.879C322.686 215.88 323.274 216.124 323.708 216.558C324.142 216.992 324.386 217.581 324.387 218.194V244.529C324.733 244.679 325.095 244.797 325.467 244.893C325.481 244.843 325.498 244.793 325.498 244.739V218.194ZM334.505 215.44C333.92 215.003 333.209 214.768 332.479 214.769C331.571 214.77 330.7 215.131 330.058 215.774C329.415 216.416 329.054 217.287 329.053 218.195V244.739C329.053 244.794 329.069 244.843 329.084 244.893C329.453 244.801 329.814 244.679 330.164 244.529V218.194C330.165 217.581 330.409 216.992 330.843 216.558C331.277 216.124 331.865 215.88 332.479 215.879C333.11 215.879 333.701 216.133 334.143 216.592C334.195 216.645 334.257 216.688 334.326 216.717C334.395 216.746 334.469 216.76 334.543 216.76V216.193C334.544 215.939 334.53 215.688 334.505 215.44V215.44Z" fill="#EA971D"/>
<path d="M329.208 188.241L329.809 189.121H325.944L325.342 188.241H329.208Z" fill="#E2DCE3"/>
<path d="M322.576 196.389L323.178 197.268L325.944 189.121L325.342 188.241L322.576 196.389ZM323.41 211.493C323.41 211.493 323.826 212.235 324.029 212.466C324.233 212.696 325.956 199.497 325.956 199.497L325.122 198.866L323.41 211.493V211.493Z" fill="#E2DCE3"/>
<path d="M329.983 199.398L332.576 197.269L329.81 189.121H325.944L323.178 197.269L325.771 199.398L324.011 212.361H324.013C324.013 212.365 324.011 212.369 324.011 212.373C324.011 212.909 325.742 213.345 327.877 213.345C330.012 213.345 331.743 212.909 331.743 212.373C331.743 212.369 331.741 212.365 331.741 212.361H331.743L329.983 199.398V199.398Z" fill="#B5A8AE"/>
<path d="M334.98 239.68L340.388 209.613L351.316 211.579L345.909 241.646L334.98 239.68Z" fill="#92A6EB"/>
<path d="M338.179 240.255L343.586 210.188L348.167 211.012L342.759 241.079L338.179 240.255Z" fill="#6A74EF"/>
<path d="M340.388 209.608L347.759 199.848L351.317 211.573C351.317 211.573 349.373 213.342 345.459 212.638C341.545 211.934 340.388 209.608 340.388 209.608Z" fill="#F2D265"/>
<path d="M348.858 203.471L347.759 199.848L345.479 202.865C345.973 203.045 346.507 203.209 347.134 203.322C347.767 203.436 348.328 203.469 348.858 203.471V203.471Z" fill="#6A74EF"/>
<path d="M318.357 227.871C318.357 227.871 314.792 251.759 315.857 253.704C317.861 257.364 336.181 259.491 342.246 258.333C346.632 257.496 348.542 254.537 348.542 254.537L352.804 224.273C352.804 224.273 349.144 228.935 346.783 229.306C344.422 229.676 336.046 229.907 329.609 229.537C323.172 229.167 318.357 227.871 318.357 227.871V227.871Z" fill="url(#paint43_linear_1313_9486)"/>
<path d="M348.542 254.537L352.804 224.273C352.804 224.273 349.371 228.638 347.01 229.247L347.008 229.258C347.015 232.824 343.912 255.74 342.246 258.333C346.632 257.496 348.542 254.537 348.542 254.537Z" fill="url(#paint44_linear_1313_9486)"/>
<path d="M339.621 236.069L339.616 235.236C340.746 235.231 341.861 235.202 342.931 235.152L342.97 235.984C341.888 236.035 340.762 236.063 339.621 236.069ZM337.387 236.051C336.271 236.027 335.155 235.984 334.041 235.923L334.086 235.091C335.207 235.153 336.323 235.196 337.404 235.218L337.387 236.051V236.051ZM345.202 235.841L345.134 235.011C345.542 234.977 345.948 234.941 346.35 234.899C346.528 234.819 347.147 234.528 348.015 233.969L348.467 234.671C347.365 235.379 346.648 235.68 346.617 235.692L346.501 235.722C346.071 235.766 345.637 235.806 345.202 235.841ZM331.813 235.776C330.7 235.691 329.589 235.588 328.479 235.467L328.569 234.639C329.664 234.758 330.777 234.861 331.877 234.946L331.813 235.776V235.776ZM326.262 235.202C325.154 235.058 324.049 234.892 322.947 234.705L323.087 233.883C324.123 234.06 325.228 234.226 326.37 234.376L326.262 235.202V235.202ZM320.747 234.29C319.576 234.045 318.049 233.678 317.427 233.328L317.836 232.602C318.237 232.828 319.388 233.154 320.917 233.474L320.747 234.29ZM350.301 233.338L349.776 232.691C350.623 232.002 351.42 231.253 352.159 230.45L352.772 231.015C352.005 231.847 351.179 232.624 350.301 233.338V233.338Z" fill="#F2D265"/>
<path d="M352.804 224.273C353.172 224.074 356.736 223.194 361.227 223.009C365.718 222.824 369.919 222.702 370.388 223.342C370.857 223.982 367.061 245.371 366.227 246.482C365.394 247.593 362.848 250.139 358.218 250.139C352.522 250.139 349.633 246.789 349.633 246.789L351.423 234.082L352.804 224.273Z" fill="url(#paint45_linear_1313_9486)"/>
<path d="M360.95 234.676C369.316 234.488 370.218 224.663 370.422 223.541C370.417 223.444 370.408 223.369 370.388 223.342C369.918 222.703 365.718 222.824 361.227 223.009C356.736 223.194 353.172 224.074 352.804 224.273C352.661 225.289 352.709 234.861 360.95 234.676Z" fill="url(#paint46_linear_1313_9486)"/>
<path d="M361.505 231.203C362.758 231.203 363.773 230.188 363.773 228.935C363.773 227.682 362.758 226.667 361.505 226.667C360.252 226.667 359.237 227.682 359.237 228.935C359.237 230.188 360.252 231.203 361.505 231.203Z" fill="#F2D265"/>
<defs>
<linearGradient id="paint0_linear_1313_9486" x1="158.145" y1="364.102" x2="158.145" y2="335.608" gradientUnits="userSpaceOnUse">
<stop stop-color="#92A6EB"/>
<stop offset="1" stop-color="#6A74EF"/>
</linearGradient>
<linearGradient id="paint1_linear_1313_9486" x1="190.108" y1="364.102" x2="190.108" y2="335.608" gradientUnits="userSpaceOnUse">
<stop stop-color="#2421A2"/>
<stop offset="1" stop-color="#5C60D5"/>
</linearGradient>
<linearGradient id="paint2_linear_1313_9486" x1="108.202" y1="338.933" x2="150.024" y2="380.756" gradientUnits="userSpaceOnUse">
<stop stop-color="#5C60D5"/>
<stop offset="1" stop-color="#2421A2"/>
</linearGradient>
<linearGradient id="paint3_linear_1313_9486" x1="121.342" y1="375.323" x2="161.122" y2="415.103" gradientUnits="userSpaceOnUse">
<stop stop-color="#5C60D5"/>
<stop offset="1" stop-color="#2421A2"/>
</linearGradient>
<linearGradient id="paint4_linear_1313_9486" x1="156.234" y1="360.492" x2="200.59" y2="360.492" gradientUnits="userSpaceOnUse">
<stop stop-color="#DC6734"/>
<stop offset="1" stop-color="#AE2E41"/>
</linearGradient>
<linearGradient id="paint5_linear_1313_9486" x1="157.802" y1="366.197" x2="214.862" y2="423.257" gradientUnits="userSpaceOnUse">
<stop stop-color="#92A6EB"/>
<stop offset="1" stop-color="#6A74EF"/>
</linearGradient>
<linearGradient id="paint6_linear_1313_9486" x1="155.871" y1="417.435" x2="217.766" y2="417.435" gradientUnits="userSpaceOnUse">
<stop stop-color="#E9AA4A"/>
<stop offset="1" stop-color="#EA971D"/>
</linearGradient>
<linearGradient id="paint7_linear_1313_9486" x1="201.345" y1="218.543" x2="281.667" y2="298.865" gradientUnits="userSpaceOnUse">
<stop stop-color="#E3DDE4"/>
<stop offset="1" stop-color="#B5A8AE"/>
</linearGradient>
<linearGradient id="paint8_linear_1313_9486" x1="241.505" y1="230.213" x2="298.299" y2="230.213" gradientUnits="userSpaceOnUse">
<stop stop-color="#DC6734"/>
<stop offset="1" stop-color="#AE2E41"/>
</linearGradient>
<linearGradient id="paint9_linear_1313_9486" x1="159.63" y1="97.5927" x2="271.782" y2="97.5927" gradientUnits="userSpaceOnUse">
<stop stop-color="#E9AA4A"/>
<stop offset="1" stop-color="#F2D265"/>
</linearGradient>
<linearGradient id="paint10_linear_1313_9486" x1="230.255" y1="70.37" x2="302.616" y2="70.37" gradientUnits="userSpaceOnUse">
<stop stop-color="#6A74EF"/>
<stop offset="1" stop-color="#92A6EB"/>
</linearGradient>
<linearGradient id="paint11_linear_1313_9486" x1="146.216" y1="154.649" x2="193.894" y2="202.328" gradientUnits="userSpaceOnUse">
<stop stop-color="#F2D265"/>
<stop offset="1" stop-color="#DCBB60"/>
</linearGradient>
<linearGradient id="paint12_linear_1313_9486" x1="149.317" y1="89.2778" x2="165.947" y2="105.908" gradientUnits="userSpaceOnUse">
<stop stop-color="#DC6734"/>
<stop offset="1" stop-color="#AE2E41"/>
</linearGradient>
<linearGradient id="paint13_linear_1313_9486" x1="205.44" y1="122.461" x2="261.631" y2="178.652" gradientUnits="userSpaceOnUse">
<stop stop-color="#92A6EB"/>
<stop offset="1" stop-color="#6A74EF"/>
</linearGradient>
<linearGradient id="paint14_linear_1313_9486" x1="219.949" y1="62.0555" x2="236.579" y2="78.6855" gradientUnits="userSpaceOnUse">
<stop stop-color="#DC6734"/>
<stop offset="1" stop-color="#AE2E41"/>
</linearGradient>
<linearGradient id="paint15_linear_1313_9486" x1="376.319" y1="412.484" x2="393.92" y2="412.484" gradientUnits="userSpaceOnUse">
<stop stop-color="#EAAEA4"/>
<stop offset="0.313" stop-color="#E8A89D"/>
<stop offset="0.782" stop-color="#E39688"/>
<stop offset="1" stop-color="#E08C7C"/>
</linearGradient>
<linearGradient id="paint16_linear_1313_9486" x1="355.022" y1="425.539" x2="394.755" y2="425.539" gradientUnits="userSpaceOnUse">
<stop stop-color="#DC6734"/>
<stop offset="1" stop-color="#AE2E41"/>
</linearGradient>
<linearGradient id="paint17_linear_1313_9486" x1="367.398" y1="403.493" x2="367.398" y2="219.102" gradientUnits="userSpaceOnUse">
<stop stop-color="#5C60D5"/>
<stop offset="0.588" stop-color="#2421A2"/>
<stop offset="1" stop-color="#250F52"/>
</linearGradient>
<linearGradient id="paint18_linear_1313_9486" x1="359.625" y1="275.914" x2="359.625" y2="269.618" gradientUnits="userSpaceOnUse">
<stop stop-color="#6A74EF"/>
<stop offset="1" stop-color="#5C60D5"/>
</linearGradient>
<linearGradient id="paint19_linear_1313_9486" x1="355.022" y1="429.225" x2="394.755" y2="429.225" gradientUnits="userSpaceOnUse">
<stop stop-color="#E9AA4A"/>
<stop offset="1" stop-color="#EA971D"/>
</linearGradient>
<linearGradient id="paint20_linear_1313_9486" x1="369.872" y1="397.673" x2="391.404" y2="397.673" gradientUnits="userSpaceOnUse">
<stop stop-color="#92A6EB"/>
<stop offset="1" stop-color="#6A74EF"/>
</linearGradient>
<linearGradient id="paint21_linear_1313_9486" x1="294.549" y1="418.438" x2="312.524" y2="418.438" gradientUnits="userSpaceOnUse">
<stop stop-color="#EAAEA4"/>
<stop offset="0.313" stop-color="#E8A89D"/>
<stop offset="0.782" stop-color="#E39688"/>
<stop offset="1" stop-color="#E08C7C"/>
</linearGradient>
<linearGradient id="paint22_linear_1313_9486" x1="271.5" y1="430.738" x2="311.306" y2="430.738" gradientUnits="userSpaceOnUse">
<stop stop-color="#DC6734"/>
<stop offset="1" stop-color="#AE2E41"/>
</linearGradient>
<linearGradient id="paint23_linear_1313_9486" x1="295.012" y1="316.309" x2="370.243" y2="316.309" gradientUnits="userSpaceOnUse">
<stop stop-color="#5C60D5"/>
<stop offset="0.588" stop-color="#2421A2"/>
<stop offset="1" stop-color="#250F52"/>
</linearGradient>
<linearGradient id="paint24_linear_1313_9486" x1="271.501" y1="434.826" x2="311.306" y2="434.826" gradientUnits="userSpaceOnUse">
<stop stop-color="#E9AA4A"/>
<stop offset="1" stop-color="#EA971D"/>
</linearGradient>
<linearGradient id="paint25_linear_1313_9486" x1="295.012" y1="404.554" x2="315.598" y2="404.554" gradientUnits="userSpaceOnUse">
<stop stop-color="#92A6EB"/>
<stop offset="1" stop-color="#6A74EF"/>
</linearGradient>
<radialGradient id="paint26_radial_1313_9486" cx="0" cy="0" r="1" gradientUnits="userSpaceOnUse" gradientTransform="translate(404.441 88.9606) scale(61.6011 61.6011)">
<stop stop-color="#E08D7D"/>
<stop offset="0.035" stop-color="#E49587"/>
<stop offset="0.137" stop-color="#EFAA9E"/>
<stop offset="0.247" stop-color="#F6B8AE"/>
<stop offset="0.369" stop-color="#FBC0B8"/>
<stop offset="0.527" stop-color="#FCC3BB"/>
<stop offset="1" stop-color="#EAAEA4"/>
</radialGradient>
<linearGradient id="paint27_linear_1313_9486" x1="383.635" y1="144.461" x2="407.505" y2="144.461" gradientUnits="userSpaceOnUse">
<stop stop-color="#E9AA4A"/>
<stop offset="1" stop-color="#EA971D"/>
</linearGradient>
<linearGradient id="paint28_linear_1313_9486" x1="369.885" y1="140.402" x2="369.885" y2="107.246" gradientUnits="userSpaceOnUse">
<stop stop-color="#EAAEA4"/>
<stop offset="0.313" stop-color="#E8A89D"/>
<stop offset="0.782" stop-color="#E39688"/>
<stop offset="1" stop-color="#E08C7C"/>
</linearGradient>
<linearGradient id="paint29_linear_1313_9486" x1="338.678" y1="101.026" x2="346.789" y2="101.026" gradientUnits="userSpaceOnUse">
<stop stop-color="#E25AB8"/>
<stop offset="1" stop-color="#EAAEA4"/>
</linearGradient>
<linearGradient id="paint30_linear_1313_9486" x1="343.55" y1="101.381" x2="378.921" y2="101.381" gradientUnits="userSpaceOnUse">
<stop stop-color="#EAAEA4"/>
<stop offset="0.313" stop-color="#E8A89D"/>
<stop offset="0.782" stop-color="#E39688"/>
<stop offset="1" stop-color="#E08C7C"/>
</linearGradient>
<linearGradient id="paint31_linear_1313_9486" x1="331.777" y1="94.1011" x2="387.391" y2="94.1011" gradientUnits="userSpaceOnUse">
<stop stop-color="#BE4118"/>
<stop offset="0.165" stop-color="#A2391E"/>
<stop offset="0.388" stop-color="#833024"/>
<stop offset="0.606" stop-color="#6D2A28"/>
<stop offset="0.814" stop-color="#60262B"/>
<stop offset="1" stop-color="#5B252C"/>
</linearGradient>
<linearGradient id="paint32_linear_1313_9486" x1="248.493" y1="93.4555" x2="338.195" y2="93.4555" gradientUnits="userSpaceOnUse">
<stop stop-color="#5B252C"/>
<stop offset="1" stop-color="#250F50"/>
</linearGradient>
<linearGradient id="paint33_linear_1313_9486" x1="304.506" y1="78.36" x2="310.382" y2="78.36" gradientUnits="userSpaceOnUse">
<stop stop-color="#EAAEA4"/>
<stop offset="0.313" stop-color="#E8A89D"/>
<stop offset="0.782" stop-color="#E39688"/>
<stop offset="1" stop-color="#E08C7C"/>
</linearGradient>
<linearGradient id="paint34_linear_1313_9486" x1="307.316" y1="76.5945" x2="313.753" y2="76.5945" gradientUnits="userSpaceOnUse">
<stop stop-color="#EAAEA4"/>
<stop offset="0.313" stop-color="#E8A89D"/>
<stop offset="0.782" stop-color="#E39688"/>
<stop offset="1" stop-color="#E08C7C"/>
</linearGradient>
<linearGradient id="paint35_linear_1313_9486" x1="310.282" y1="75.2994" x2="315.147" y2="75.2994" gradientUnits="userSpaceOnUse">
<stop stop-color="#EAAEA4"/>
<stop offset="0.313" stop-color="#E8A89D"/>
<stop offset="0.782" stop-color="#E39688"/>
<stop offset="1" stop-color="#E08C7C"/>
</linearGradient>
<linearGradient id="paint36_linear_1313_9486" x1="313.668" y1="70.8272" x2="319.28" y2="70.8272" gradientUnits="userSpaceOnUse">
<stop stop-color="#EAAEA4"/>
<stop offset="0.313" stop-color="#E8A89D"/>
<stop offset="0.782" stop-color="#E39688"/>
<stop offset="1" stop-color="#E08C7C"/>
</linearGradient>
<linearGradient id="paint37_linear_1313_9486" x1="307.261" y1="88.1295" x2="323.094" y2="88.1295" gradientUnits="userSpaceOnUse">
<stop stop-color="#FCC3BB"/>
<stop offset="1" stop-color="#EAAEA4"/>
</linearGradient>
<radialGradient id="paint38_radial_1313_9486" cx="0" cy="0" r="1" gradientUnits="userSpaceOnUse" gradientTransform="translate(280.923 174.592) scale(72.9028 72.9028)">
<stop stop-color="#E08D7D"/>
<stop offset="0.035" stop-color="#E49587"/>
<stop offset="0.137" stop-color="#EFAA9E"/>
<stop offset="0.247" stop-color="#F6B8AE"/>
<stop offset="0.369" stop-color="#FBC0B8"/>
<stop offset="0.527" stop-color="#FCC3BB"/>
<stop offset="1" stop-color="#EAAEA4"/>
</radialGradient>
<linearGradient id="paint39_linear_1313_9486" x1="321.101" y1="141.971" x2="353.386" y2="174.256" gradientUnits="userSpaceOnUse">
<stop stop-color="#E9AA4A"/>
<stop offset="1" stop-color="#EA971D"/>
</linearGradient>
<linearGradient id="paint40_linear_1313_9486" x1="332.349" y1="151.907" x2="396.229" y2="215.786" gradientUnits="userSpaceOnUse">
<stop stop-color="#5C60D5"/>
<stop offset="0.588" stop-color="#2421A2"/>
<stop offset="1" stop-color="#250F52"/>
</linearGradient>
<linearGradient id="paint41_linear_1313_9486" x1="355.824" y1="133.506" x2="389.657" y2="167.339" gradientUnits="userSpaceOnUse">
<stop stop-color="#E9AA4A"/>
<stop offset="1" stop-color="#EA971D"/>
</linearGradient>
<linearGradient id="paint42_linear_1313_9486" x1="329.609" y1="227.384" x2="391.141" y2="227.384" gradientUnits="userSpaceOnUse">
<stop stop-color="#DC6734"/>
<stop offset="1" stop-color="#AE2E41"/>
</linearGradient>
<linearGradient id="paint43_linear_1313_9486" x1="315.658" y1="241.462" x2="352.804" y2="241.462" gradientUnits="userSpaceOnUse">
<stop stop-color="#EA971D"/>
<stop offset="1" stop-color="#DC6734"/>
</linearGradient>
<linearGradient id="paint44_linear_1313_9486" x1="342.246" y1="241.303" x2="352.804" y2="241.303" gradientUnits="userSpaceOnUse">
<stop stop-color="#DC6734"/>
<stop offset="1" stop-color="#AE2E41"/>
</linearGradient>
<linearGradient id="paint45_linear_1313_9486" x1="349.633" y1="236.5" x2="370.428" y2="236.5" gradientUnits="userSpaceOnUse">
<stop stop-color="#DC6734"/>
<stop offset="1" stop-color="#AE2E41"/>
</linearGradient>
<linearGradient id="paint46_linear_1313_9486" x1="352.775" y1="228.77" x2="370.422" y2="228.77" gradientUnits="userSpaceOnUse">
<stop stop-color="#EA971D"/>
<stop offset="1" stop-color="#DC6734"/>
</linearGradient>
</defs>
</svg>
