<svg width="1223" height="330" viewBox="0 0 1223 330" fill="none" xmlns="http://www.w3.org/2000/svg">
<rect y="40" width="250" height="250" rx="125" fill="url(#paint0_linear_1404_9128)"/>
<path fill-rule="evenodd" clip-rule="evenodd" d="M196.774 113.683C197.998 114.212 199.225 114.742 200.453 115.269C200.904 115.356 201.326 115.546 201.698 115.811C202.276 116.111 202.677 116.601 202.919 117.172C203.21 117.749 203.306 118.46 203.219 119.153C203.268 121.522 203.249 123.904 203.231 126.281C203.222 127.524 203.212 128.766 203.212 130.004V152.876V179.5V201.391V210.581C203.212 212.164 202.064 213.547 200.576 213.922C198.773 214.75 196.943 215.527 195.116 216.302L195.115 216.303L195.114 216.303L195.113 216.304L195.112 216.304L195.111 216.304L195.111 216.305L195.11 216.305L195.109 216.306C194.136 216.719 193.164 217.131 192.198 217.551C189.09 218.902 185.987 220.258 182.885 221.614C179.783 222.969 176.682 224.323 173.576 225.674C166.417 228.806 159.275 231.921 152.115 235.036C149.979 235.968 147.841 236.901 145.702 237.835C141.911 239.491 138.115 241.148 134.32 242.798C133.082 243.34 131.848 243.877 130.614 244.415C129.378 244.953 128.142 245.491 126.902 246.034C125.732 246.55 124.579 246.705 123.426 246.034C122.376 245.414 121.722 244.278 121.722 243.056V237.859V215.331V203.469L120.939 203.13C120.156 202.79 119.373 202.45 118.59 202.114C111.328 198.982 104.05 195.833 96.771 192.684L96.7674 192.683C94.4514 191.679 92.1312 190.676 89.811 189.672L89.7887 189.662L89.7664 189.653L89.7528 189.647C87.7677 188.788 85.7826 187.93 83.8003 187.071C83.4264 187.013 83.0512 186.882 82.6724 186.659C81.6226 186.04 80.9686 184.904 80.9686 183.682V177.521V150.707V135.744C74.7137 133.012 68.4416 130.28 62.1696 127.547L62.1579 127.542C60.5832 126.854 59.0084 126.17 57.4337 125.486C55.859 124.802 54.2843 124.118 52.7095 123.429C52.2191 123.214 51.7329 123.003 51.2467 122.792C50.7605 122.582 50.2743 122.371 49.7838 122.156C49.5449 122.049 49.1046 121.862 48.8845 121.769C48.8031 121.735 48.7518 121.713 48.7519 121.713C48.7521 121.713 48.9013 121.774 49.3045 121.941L49.3077 121.942L49.3115 121.944L49.4353 121.995C48.1559 121.46 47.2168 120.603 47.0302 119.161C46.8581 117.956 47.4261 116.27 48.6652 115.736C48.8373 115.65 48.9922 115.581 49.1643 115.513C50.9454 114.747 52.7223 113.977 54.4992 113.207C56.2762 112.436 58.0532 111.666 59.8345 110.9C63.0701 109.506 66.3013 108.108 69.5326 106.71L69.5339 106.709L69.5352 106.708L69.5365 106.708C72.7663 105.31 75.9961 103.912 79.2303 102.519C83.4668 100.695 87.6974 98.8643 91.9255 97.0351L91.9266 97.0346C94.8777 95.7578 97.8275 94.4816 100.777 93.2083C103.591 91.9951 106.405 90.7775 109.218 89.56C112.032 88.3423 114.846 87.1246 117.66 85.9113C118.208 85.6749 118.757 85.4363 119.308 85.1971C120.282 84.7744 121.26 84.3497 122.238 83.9321C122.401 83.8634 122.56 83.7947 122.719 83.7259L122.72 83.7256C122.879 83.6567 123.039 83.5879 123.202 83.5191C123.279 83.4859 123.356 83.4522 123.432 83.4186L123.432 83.4186C123.948 83.1911 124.444 82.9728 125.044 83.0028C125.715 83.0372 126.283 83.2609 126.885 83.5191C129.862 84.7926 132.84 86.0834 135.817 87.3741C138.923 88.7161 142.032 90.0581 145.142 91.4001C148.254 92.7429 151.365 94.0857 154.473 95.4284C158.088 96.9866 161.7 98.5448 165.311 100.103C168.92 101.66 172.528 103.217 176.14 104.773C179.125 106.064 182.114 107.354 185.103 108.644C188.094 109.935 191.086 111.227 194.073 112.518C194.968 112.903 195.865 113.291 196.763 113.679L196.773 113.683L196.774 113.683ZM128.572 121.291V122.259V149.141V163.844C129.594 164.287 130.618 164.734 131.635 165.181C135.27 166.762 138.91 168.343 142.55 169.925L142.569 169.933C145.334 171.135 148.1 172.336 150.863 173.538C151.825 173.953 152.788 174.369 153.75 174.784C156.031 175.765 158.307 176.75 160.583 177.736C161.133 177.974 161.684 178.212 162.235 178.451V177.434C162.235 177.424 162.235 177.413 162.235 177.403V150.518V135.899C161.209 135.451 160.185 135.008 159.154 134.564L137.263 125.064C134.948 124.057 132.638 123.055 130.327 122.052C129.742 121.799 129.157 121.545 128.572 121.291Z" fill="white"/>
<path d="M363.26 117.7V148.94H413.64V177.98H363.26V211.86H420.24V242H325.64V87.56H420.24V117.7H363.26ZM491.303 117.48C499.957 117.48 507.51 119.24 513.963 122.76C520.563 126.28 525.623 130.9 529.143 136.62V119.24H566.763V241.78C566.763 253.073 564.49 263.267 559.943 272.36C555.543 281.6 548.723 288.933 539.483 294.36C530.39 299.787 519.023 302.5 505.383 302.5C487.197 302.5 472.457 298.173 461.163 289.52C449.87 281.013 443.417 269.427 441.803 254.76H478.983C480.157 259.453 482.943 263.12 487.343 265.76C491.743 268.547 497.17 269.94 503.623 269.94C511.397 269.94 517.557 267.667 522.103 263.12C526.797 258.72 529.143 251.607 529.143 241.78V224.4C525.477 230.12 520.417 234.813 513.963 238.48C507.51 242 499.957 243.76 491.303 243.76C481.183 243.76 472.017 241.193 463.803 236.06C455.59 230.78 449.063 223.373 444.223 213.84C439.53 204.16 437.183 193.013 437.183 180.4C437.183 167.787 439.53 156.713 444.223 147.18C449.063 137.647 455.59 130.313 463.803 125.18C472.017 120.047 481.183 117.48 491.303 117.48ZM529.143 180.62C529.143 171.233 526.503 163.827 521.223 158.4C516.09 152.973 509.783 150.26 502.303 150.26C494.823 150.26 488.443 152.973 483.163 158.4C478.03 163.68 475.463 171.013 475.463 180.4C475.463 189.787 478.03 197.267 483.163 202.84C488.443 208.267 494.823 210.98 502.303 210.98C509.783 210.98 516.09 208.267 521.223 202.84C526.503 197.413 529.143 190.007 529.143 180.62ZM668.78 117.92C683.153 117.92 694.593 122.613 703.1 132C711.753 141.24 716.08 154 716.08 170.28V242H678.68V175.34C678.68 167.127 676.553 160.747 672.3 156.2C668.047 151.653 662.327 149.38 655.14 149.38C647.953 149.38 642.233 151.653 637.98 156.2C633.727 160.747 631.6 167.127 631.6 175.34V242H593.98V119.24H631.6V135.52C635.413 130.093 640.547 125.84 647 122.76C653.453 119.533 660.713 117.92 668.78 117.92ZM761.142 106.48C754.542 106.48 749.115 104.573 744.862 100.76C740.755 96.8 738.702 91.96 738.702 86.24C738.702 80.3733 740.755 75.5333 744.862 71.72C749.115 67.76 754.542 65.78 761.142 65.78C767.595 65.78 772.875 67.76 776.982 71.72C781.235 75.5333 783.362 80.3733 783.362 86.24C783.362 91.96 781.235 96.8 776.982 100.76C772.875 104.573 767.595 106.48 761.142 106.48ZM779.842 119.24V242H742.222V119.24H779.842ZM875.525 210.1V242H856.385C842.745 242 832.112 238.7 824.485 232.1C816.858 225.353 813.045 214.427 813.045 199.32V150.48H798.085V119.24H813.045V89.32H850.665V119.24H875.305V150.48H850.665V199.76C850.665 203.427 851.545 206.067 853.305 207.68C855.065 209.293 857.998 210.1 862.105 210.1H875.525ZM1012.2 178.64C1012.2 182.16 1011.98 185.827 1011.54 189.64H926.4C926.987 197.267 929.407 203.133 933.66 207.24C938.06 211.2 943.413 213.18 949.72 213.18C959.107 213.18 965.633 209.22 969.3 201.3H1009.34C1007.29 209.367 1003.55 216.627 998.12 223.08C992.84 229.533 986.167 234.593 978.1 238.26C970.033 241.927 961.013 243.76 951.04 243.76C939.013 243.76 928.307 241.193 918.92 236.06C909.533 230.927 902.2 223.593 896.92 214.06C891.64 204.527 889 193.38 889 180.62C889 167.86 891.567 156.713 896.7 147.18C901.98 137.647 909.313 130.313 918.7 125.18C928.087 120.047 938.867 117.48 951.04 117.48C962.92 117.48 973.48 119.973 982.72 124.96C991.96 129.947 999.147 137.06 1004.28 146.3C1009.56 155.54 1012.2 166.32 1012.2 178.64ZM973.7 168.74C973.7 162.287 971.5 157.153 967.1 153.34C962.7 149.527 957.2 147.62 950.6 147.62C944.293 147.62 938.94 149.453 934.54 153.12C930.287 156.787 927.647 161.993 926.62 168.74H973.7ZM1069.67 79.2V242H1032.05V79.2H1069.67ZM1222.33 119.24L1145.33 300.3H1104.85L1133.01 237.82L1083.07 119.24H1125.09L1153.47 196.02L1181.63 119.24H1222.33Z" fill="white"/>
<defs>
<linearGradient id="paint0_linear_1404_9128" x1="138" y1="145.5" x2="-5.52833e-06" y2="290" gradientUnits="userSpaceOnUse">
<stop stop-color="#FF5F21"/>
<stop offset="1" stop-color="#FF9900"/>
</linearGradient>
</defs>
</svg>
