<svg width="608" height="225" viewBox="0 0 608 225" fill="none" xmlns="http://www.w3.org/2000/svg">
<rect y="42" width="140" height="140" rx="70" fill="url(#paint0_linear_1_86)"/>
<path fill-rule="evenodd" clip-rule="evenodd" d="M105.923 83.3322C106.609 83.6285 107.297 83.9255 107.984 84.2209C108.237 84.2693 108.474 84.3757 108.682 84.5241C109.006 84.6922 109.23 84.9664 109.366 85.2862C109.529 85.6093 109.582 86.0076 109.534 86.3957C109.561 87.7223 109.551 89.0561 109.54 90.3874C109.535 91.0834 109.53 91.7788 109.53 92.472V105.28V120.19V132.449V137.595C109.53 138.482 108.887 139.256 108.053 139.467C107.044 139.93 106.019 140.365 104.996 140.799L104.995 140.8C104.449 141.031 103.904 141.263 103.361 141.499C101.625 142.254 99.8919 143.011 98.1583 143.768L98.1469 143.773C96.4099 144.532 94.6729 145.291 92.9335 146.048C88.9242 147.802 84.9246 149.546 80.9153 151.29C79.7195 151.812 78.5223 152.335 77.3244 152.858C75.2013 153.785 73.0756 154.713 70.95 155.637C70.2561 155.941 69.5646 156.242 68.8731 156.543C68.1816 156.844 67.4901 157.145 66.7962 157.449C66.1408 157.738 65.4951 157.825 64.8494 157.449C64.2615 157.102 63.8952 156.466 63.8952 155.782V152.871V140.255V133.613L63.4561 133.422C63.0178 133.232 62.5794 133.042 62.1411 132.854C58.074 131.1 53.9973 129.336 49.9206 127.572C48.6248 127.011 47.3267 126.449 46.0286 125.888L46.0143 125.882L46.0112 125.88L45.992 125.872C44.8805 125.391 43.769 124.91 42.659 124.43C42.4496 124.397 42.2395 124.324 42.0274 124.199C41.4395 123.852 41.0732 123.216 41.0732 122.532V119.082V104.066V95.6867C37.5683 94.1557 34.0538 92.6247 30.5393 91.0938C29.6573 90.7082 28.7754 90.3251 27.8935 89.9419C27.0117 89.5589 26.13 89.1758 25.2482 88.7904C24.974 88.6701 24.7023 88.5523 24.4305 88.4344L24.4299 88.4341L24.4289 88.4337L24.4287 88.4337C24.1566 88.3156 23.8844 88.1976 23.6098 88.0772C23.476 88.0172 23.2295 87.913 23.1062 87.8609C23.0606 87.8416 23.0319 87.8295 23.0319 87.8293C23.032 87.8291 23.1137 87.8628 23.334 87.9538L23.3371 87.9551L23.4147 87.9871C22.6981 87.6875 22.1723 87.2077 22.0678 86.4002C21.9714 85.7256 22.2894 84.7811 22.9834 84.4823C23.0797 84.4341 23.1665 84.3956 23.2628 84.357C24.2603 83.9282 25.2554 83.4969 26.2505 83.0656C27.2456 82.6343 28.2407 82.203 29.2382 81.7742C31.0501 80.9935 32.8595 80.2105 34.669 79.4274C36.4785 78.6443 38.2879 77.8613 40.0998 77.0806C42.472 76.0591 44.8409 75.0342 47.2084 74.01L47.2091 74.0097C48.8619 73.2946 50.514 72.5798 52.1661 71.8667C53.7411 71.1876 55.316 70.506 56.891 69.8245L56.8928 69.8237L56.8933 69.8235C58.4691 69.1416 60.0449 68.4598 61.6207 67.7803C61.9259 67.6485 62.2323 67.5155 62.5395 67.3821L62.5424 67.3809L62.5429 67.3807L62.5435 67.3804C63.0888 67.1437 63.6365 66.9059 64.1843 66.672C64.2757 66.6335 64.3647 66.595 64.4538 66.5565L64.4542 66.5563C64.5433 66.5178 64.6324 66.4792 64.724 66.4407C64.7673 66.4221 64.8102 66.4032 64.8528 66.3844L64.8528 66.3844C65.1419 66.257 65.4193 66.1347 65.7552 66.1515C66.1311 66.1708 66.4491 66.2961 66.7864 66.4407C68.4538 67.1539 70.1211 67.8767 71.7884 68.5995C73.5253 69.3501 75.2647 70.1007 77.004 70.8513L77.0111 70.8543C78.7534 71.6062 80.4957 72.3581 82.2356 73.1099C84.2522 73.979 86.2664 74.848 88.2806 75.7171L88.2901 75.7212L88.3025 75.7265C90.324 76.5987 92.3455 77.471 94.3694 78.3432C96.0417 79.0661 97.7164 79.789 99.3912 80.5119C101.066 81.2346 102.74 81.9574 104.412 82.6801C104.914 82.8965 105.418 83.1142 105.923 83.3322ZM67.7311 87.5928V88.135V103.189V111.423C68.3034 111.671 68.8769 111.921 69.4464 112.171C71.4848 113.058 73.5256 113.945 75.5663 114.831C77.1169 115.505 78.6674 116.179 80.2169 116.852C80.7548 117.085 81.2928 117.317 81.831 117.549C83.1078 118.098 84.3822 118.65 85.6566 119.202C85.9651 119.335 86.2737 119.469 86.5823 119.602V119.033C86.5823 119.029 86.5823 119.025 86.5823 119.021V103.96V95.7734C86.0078 95.5226 85.4345 95.2742 84.8572 95.0259L72.5981 89.7059C71.3018 89.1421 70.008 88.5807 68.7141 88.0194C68.3864 87.8772 68.0588 87.735 67.7311 87.5928Z" fill="white"/>
<path d="M230 60.3V77.25H186.35V104.1H219.8V120.75H186.35V165H165.35V60.3H230ZM230.491 123.15C230.491 114.75 232.141 107.3 235.441 100.8C238.841 94.3 243.391 89.3 249.091 85.8C254.891 82.3 261.341 80.55 268.441 80.55C274.641 80.55 280.041 81.8 284.641 84.3C289.341 86.8 293.091 89.95 295.891 93.75V81.9H317.041V165H295.891V152.85C293.191 156.75 289.441 160 284.641 162.6C279.941 165.1 274.491 166.35 268.291 166.35C261.291 166.35 254.891 164.55 249.091 160.95C243.391 157.35 238.841 152.3 235.441 145.8C232.141 139.2 230.491 131.65 230.491 123.15ZM295.891 123.45C295.891 118.35 294.891 114 292.891 110.4C290.891 106.7 288.191 103.9 284.791 102C281.391 100 277.741 99 273.841 99C269.941 99 266.341 99.95 263.041 101.85C259.741 103.75 257.041 106.55 254.941 110.25C252.941 113.85 251.941 118.15 251.941 123.15C251.941 128.15 252.941 132.55 254.941 136.35C257.041 140.05 259.741 142.9 263.041 144.9C266.441 146.9 270.041 147.9 273.841 147.9C277.741 147.9 281.391 146.95 284.791 145.05C288.191 143.05 290.891 140.25 292.891 136.65C294.891 132.95 295.891 128.55 295.891 123.45ZM323.151 123.15C323.151 114.75 324.801 107.3 328.101 100.8C331.501 94.3 336.051 89.3 341.751 85.8C347.551 82.3 354.001 80.55 361.101 80.55C367.301 80.55 372.701 81.8 377.301 84.3C382.001 86.8 385.751 89.95 388.551 93.75V81.9H409.701V165H388.551V152.85C385.851 156.75 382.101 160 377.301 162.6C372.601 165.1 367.151 166.35 360.951 166.35C353.951 166.35 347.551 164.55 341.751 160.95C336.051 157.35 331.501 152.3 328.101 145.8C324.801 139.2 323.151 131.65 323.151 123.15ZM388.551 123.45C388.551 118.35 387.551 114 385.551 110.4C383.551 106.7 380.851 103.9 377.451 102C374.051 100 370.401 99 366.501 99C362.601 99 359.001 99.95 355.701 101.85C352.401 103.75 349.701 106.55 347.601 110.25C345.601 113.85 344.601 118.15 344.601 123.15C344.601 128.15 345.601 132.55 347.601 136.35C349.701 140.05 352.401 142.9 355.701 144.9C359.101 146.9 362.701 147.9 366.501 147.9C370.401 147.9 374.051 146.95 377.451 145.05C380.851 143.05 383.551 140.25 385.551 136.65C387.551 132.95 388.551 128.55 388.551 123.45ZM453.011 166.35C446.211 166.35 440.111 165.15 434.711 162.75C429.311 160.25 425.011 156.9 421.811 152.7C418.711 148.5 417.011 143.85 416.711 138.75H437.861C438.261 141.95 439.811 144.6 442.511 146.7C445.311 148.8 448.761 149.85 452.861 149.85C456.861 149.85 459.961 149.05 462.161 147.45C464.461 145.85 465.611 143.8 465.611 141.3C465.611 138.6 464.211 136.6 461.411 135.3C458.711 133.9 454.361 132.4 448.361 130.8C442.161 129.3 437.061 127.75 433.061 126.15C429.161 124.55 425.761 122.1 422.861 118.8C420.061 115.5 418.661 111.05 418.661 105.45C418.661 100.85 419.961 96.65 422.561 92.85C425.261 89.05 429.061 86.05 433.961 83.85C438.961 81.65 444.811 80.55 451.511 80.55C461.411 80.55 469.311 83.05 475.211 88.05C481.111 92.95 484.361 99.6 484.961 108H464.861C464.561 104.7 463.161 102.1 460.661 100.2C458.261 98.2 455.011 97.2 450.911 97.2C447.111 97.2 444.161 97.9 442.061 99.3C440.061 100.7 439.061 102.65 439.061 105.15C439.061 107.95 440.461 110.1 443.261 111.6C446.061 113 450.411 114.45 456.311 115.95C462.311 117.45 467.261 119 471.161 120.6C475.061 122.2 478.411 124.7 481.211 128.1C484.111 131.4 485.611 135.8 485.711 141.3C485.711 146.1 484.361 150.4 481.661 154.2C479.061 158 475.261 161 470.261 163.2C465.361 165.3 459.611 166.35 453.011 166.35ZM514.95 54V165H493.95V54H514.95ZM606.198 81.9L554.748 204.3H532.398L550.398 162.9L517.098 81.9H540.648L562.098 139.95L583.848 81.9H606.198Z" fill="white"/>
<defs>
<linearGradient id="paint0_linear_1_86" x1="77.28" y1="101.08" x2="-3.09586e-06" y2="182" gradientUnits="userSpaceOnUse">
<stop stop-color="#FF5F21"/>
<stop offset="1" stop-color="#FF9900"/>
</linearGradient>
</defs>
</svg>
