<svg width="835" height="225" viewBox="0 0 835 225" fill="none" xmlns="http://www.w3.org/2000/svg">
<rect y="42" width="140" height="140" rx="70" fill="url(#paint0_linear_1_86)"/>
<path fill-rule="evenodd" clip-rule="evenodd" d="M105.923 83.3323C106.609 83.6286 107.297 83.9256 107.984 84.2209C108.237 84.2693 108.474 84.3757 108.682 84.5241C109.006 84.6922 109.23 84.9664 109.366 85.2862C109.529 85.6093 109.582 86.0076 109.534 86.3958C109.561 87.7222 109.55 89.0559 109.54 90.387V90.3871V90.3872V90.3873V90.3874L109.54 90.3895C109.535 91.0849 109.53 91.7795 109.53 92.472V105.28V120.19V132.449V137.595C109.53 138.482 108.887 139.256 108.053 139.467C107.044 139.93 106.019 140.365 104.995 140.8C104.449 141.031 103.904 141.263 103.361 141.499C101.626 142.253 99.8923 143.011 98.159 143.768L98.1475 143.773C96.4103 144.532 94.6731 145.291 92.9335 146.048C88.9242 147.802 84.9246 149.546 80.9153 151.29C79.7211 151.811 78.5257 152.333 77.3294 152.855C75.2046 153.783 73.0773 154.712 70.95 155.637C70.2561 155.941 69.5646 156.242 68.8731 156.543C68.1816 156.844 67.4901 157.145 66.7962 157.449C66.1408 157.738 65.4951 157.825 64.8494 157.449C64.2615 157.102 63.8952 156.466 63.8952 155.782V152.871V140.255V133.613L63.4572 133.423L63.453 133.421C63.0157 133.231 62.5784 133.041 62.1411 132.854C58.0819 131.103 54.0131 129.343 49.9443 127.583L49.9411 127.581L49.9349 127.578L49.9323 127.577L49.9316 127.577L49.9309 127.577L49.9206 127.572C48.6195 127.009 47.316 126.445 46.0125 125.881L45.9934 125.873C44.8814 125.392 43.7695 124.911 42.659 124.43C42.4496 124.397 42.2395 124.324 42.0274 124.199C41.4395 123.852 41.0732 123.216 41.0732 122.532V119.082V104.066V95.6867C37.5683 94.1557 34.0538 92.6247 30.5393 91.0938C29.6574 90.7082 28.7756 90.3251 27.8937 89.9421C27.0119 89.559 26.13 89.1759 25.2482 88.7904C24.9736 88.6699 24.7014 88.5519 24.4293 88.4339L24.4291 88.4338L24.4281 88.4334L24.4276 88.4331C24.1558 88.3153 23.884 88.1974 23.6098 88.0772C23.476 88.0172 23.2296 87.9131 23.1063 87.861L23.1061 87.8609L23.106 87.8608C23.0605 87.8416 23.0319 87.8295 23.0319 87.8293C23.032 87.8291 23.1152 87.8635 23.3401 87.9563L23.4147 87.9871C22.6982 87.6875 22.1723 87.2077 22.0678 86.4002C21.9714 85.7256 22.2894 84.7811 22.9834 84.4823C23.0797 84.4341 23.1665 84.3956 23.2628 84.357C24.2598 83.9284 25.2543 83.4974 26.2488 83.0663L26.2504 83.0656C27.2455 82.6343 28.2406 82.203 29.2382 81.7742C31.05 80.9935 32.8595 80.2105 34.6689 79.4274C36.4784 78.6444 38.2879 77.8613 40.0998 77.0806C42.4716 76.0593 44.84 75.0346 47.207 74.0105L47.209 74.0097C48.8618 73.2946 50.514 72.5798 52.1661 71.8667C53.7411 71.1876 55.316 70.506 56.891 69.8245L56.8923 69.8239L56.893 69.8236L56.8967 69.822C58.4714 69.1407 60.046 68.4593 61.6207 67.7803C61.9265 67.6482 62.2337 67.5149 62.5416 67.3812L62.5419 67.3811L62.5426 67.3808L62.5433 67.3805L62.5436 67.3803L62.5441 67.3801C63.0892 67.1435 63.6367 66.9058 64.1843 66.672C64.2757 66.6335 64.3647 66.595 64.4537 66.5565L64.4541 66.5563C64.5433 66.5178 64.6324 66.4792 64.724 66.4407C64.7673 66.4221 64.8102 66.4032 64.8528 66.3844L64.8528 66.3844C65.1419 66.257 65.4193 66.1347 65.7552 66.1515C66.1311 66.1708 66.4491 66.2961 66.7864 66.4407C68.4538 67.1539 70.1211 67.8767 71.7884 68.5995C73.5279 69.3512 75.2698 70.1029 77.0117 70.8546L77.0129 70.8551L77.0211 70.8587C78.7601 71.6091 80.499 72.3595 82.2356 73.1099C84.2564 73.9808 86.2748 74.8517 88.2933 75.7226L88.3028 75.7267L88.322 75.7349C90.337 76.6043 92.352 77.4738 94.3694 78.3432C96.042 79.0662 97.717 79.7892 99.392 80.5122C101.066 81.2349 102.74 81.9575 104.412 82.6801C104.913 82.8959 105.415 83.1129 105.919 83.3303L105.923 83.3323ZM67.7311 87.5928V88.135V103.189V111.423C68.3034 111.671 68.8769 111.921 69.4464 112.171C71.4844 113.058 73.5248 113.944 75.5651 114.831C77.1161 115.505 78.667 116.178 80.2169 116.852C80.7548 117.085 81.2928 117.317 81.831 117.549C83.1081 118.099 84.3829 118.65 85.6576 119.202C85.9658 119.336 86.2741 119.469 86.5823 119.602V119.033C86.5823 119.029 86.5823 119.025 86.5823 119.021V103.96V95.7734C86.0078 95.5225 85.4345 95.2742 84.8572 95.0259L72.5981 89.7059C71.3016 89.142 70.0076 88.5806 68.7135 88.0191C68.386 87.877 68.0586 87.7349 67.7311 87.5928Z" fill="white"/>
<path d="M230 60.3V77.25H186.35V104.1H219.8V120.75H186.35V165H165.35V60.3H230ZM230.491 123.15C230.491 114.75 232.141 107.3 235.441 100.8C238.841 94.3 243.391 89.3 249.091 85.8C254.891 82.3 261.341 80.55 268.441 80.55C274.641 80.55 280.041 81.8 284.641 84.3C289.341 86.8 293.091 89.95 295.891 93.75V81.9H317.041V165H295.891V152.85C293.191 156.75 289.441 160 284.641 162.6C279.941 165.1 274.491 166.35 268.291 166.35C261.291 166.35 254.891 164.55 249.091 160.95C243.391 157.35 238.841 152.3 235.441 145.8C232.141 139.2 230.491 131.65 230.491 123.15ZM295.891 123.45C295.891 118.35 294.891 114 292.891 110.4C290.891 106.7 288.191 103.9 284.791 102C281.391 100 277.741 99 273.841 99C269.941 99 266.341 99.95 263.041 101.85C259.741 103.75 257.041 106.55 254.941 110.25C252.941 113.85 251.941 118.15 251.941 123.15C251.941 128.15 252.941 132.55 254.941 136.35C257.041 140.05 259.741 142.9 263.041 144.9C266.441 146.9 270.041 147.9 273.841 147.9C277.741 147.9 281.391 146.95 284.791 145.05C288.191 143.05 290.891 140.25 292.891 136.65C294.891 132.95 295.891 128.55 295.891 123.45ZM323.151 123.15C323.151 114.75 324.801 107.3 328.101 100.8C331.501 94.3 336.051 89.3 341.751 85.8C347.551 82.3 354.001 80.55 361.101 80.55C367.301 80.55 372.701 81.8 377.301 84.3C382.001 86.8 385.751 89.95 388.551 93.75V81.9H409.701V165H388.551V152.85C385.851 156.75 382.101 160 377.301 162.6C372.601 165.1 367.151 166.35 360.951 166.35C353.951 166.35 347.551 164.55 341.751 160.95C336.051 157.35 331.501 152.3 328.101 145.8C324.801 139.2 323.151 131.65 323.151 123.15ZM388.551 123.45C388.551 118.35 387.551 114 385.551 110.4C383.551 106.7 380.851 103.9 377.451 102C374.051 100 370.401 99 366.501 99C362.601 99 359.001 99.95 355.701 101.85C352.401 103.75 349.701 106.55 347.601 110.25C345.601 113.85 344.601 118.15 344.601 123.15C344.601 128.15 345.601 132.55 347.601 136.35C349.701 140.05 352.401 142.9 355.701 144.9C359.101 146.9 362.701 147.9 366.501 147.9C370.401 147.9 374.051 146.95 377.451 145.05C380.851 143.05 383.551 140.25 385.551 136.65C387.551 132.95 388.551 128.55 388.551 123.45ZM453.011 166.35C446.211 166.35 440.111 165.15 434.711 162.75C429.311 160.25 425.011 156.9 421.811 152.7C418.711 148.5 417.011 143.85 416.711 138.75H437.861C438.261 141.95 439.811 144.6 442.511 146.7C445.311 148.8 448.761 149.85 452.861 149.85C456.861 149.85 459.961 149.05 462.161 147.45C464.461 145.85 465.611 143.8 465.611 141.3C465.611 138.6 464.211 136.6 461.411 135.3C458.711 133.9 454.361 132.4 448.361 130.8C442.161 129.3 437.061 127.75 433.061 126.15C429.161 124.55 425.761 122.1 422.861 118.8C420.061 115.5 418.661 111.05 418.661 105.45C418.661 100.85 419.961 96.65 422.561 92.85C425.261 89.05 429.061 86.05 433.961 83.85C438.961 81.65 444.811 80.55 451.511 80.55C461.411 80.55 469.311 83.05 475.211 88.05C481.111 92.95 484.361 99.6 484.961 108H464.861C464.561 104.7 463.161 102.1 460.661 100.2C458.261 98.2 455.011 97.2 450.911 97.2C447.111 97.2 444.161 97.9 442.061 99.3C440.061 100.7 439.061 102.65 439.061 105.15C439.061 107.95 440.461 110.1 443.261 111.6C446.061 113 450.411 114.45 456.311 115.95C462.311 117.45 467.261 119 471.161 120.6C475.061 122.2 478.411 124.7 481.211 128.1C484.111 131.4 485.611 135.8 485.711 141.3C485.711 146.1 484.361 150.4 481.661 154.2C479.061 158 475.261 161 470.261 163.2C465.361 165.3 459.611 166.35 453.011 166.35ZM514.95 94.05C517.65 90.05 521.35 86.8 526.05 84.3C530.85 81.8 536.3 80.55 542.4 80.55C549.5 80.55 555.9 82.3 561.6 85.8C567.4 89.3 571.95 94.3 575.25 100.8C578.65 107.2 580.35 114.65 580.35 123.15C580.35 131.65 578.65 139.2 575.25 145.8C571.95 152.3 567.4 157.35 561.6 160.95C555.9 164.55 549.5 166.35 542.4 166.35C536.2 166.35 530.75 165.15 526.05 162.75C521.45 160.25 517.75 157.05 514.95 153.15V165H493.95V54H514.95V94.05ZM558.9 123.15C558.9 118.15 557.85 113.85 555.75 110.25C553.75 106.55 551.05 103.75 547.65 101.85C544.35 99.95 540.75 99 536.85 99C533.05 99 529.45 100 526.05 102C522.75 103.9 520.05 106.7 517.95 110.4C515.95 114.1 514.95 118.45 514.95 123.45C514.95 128.45 515.95 132.8 517.95 136.5C520.05 140.2 522.75 143.05 526.05 145.05C529.45 146.95 533.05 147.9 536.85 147.9C540.75 147.9 544.35 146.9 547.65 144.9C551.05 142.9 553.75 140.05 555.75 136.35C557.85 132.65 558.9 128.25 558.9 123.15ZM581.21 123.15C581.21 114.75 582.86 107.3 586.16 100.8C589.56 94.3 594.11 89.3 599.81 85.8C605.61 82.3 612.06 80.55 619.16 80.55C625.36 80.55 630.76 81.8 635.36 84.3C640.06 86.8 643.81 89.95 646.61 93.75V81.9H667.76V165H646.61V152.85C643.91 156.75 640.16 160 635.36 162.6C630.66 165.1 625.21 166.35 619.01 166.35C612.01 166.35 605.61 164.55 599.81 160.95C594.11 157.35 589.56 152.3 586.16 145.8C582.86 139.2 581.21 131.65 581.21 123.15ZM646.61 123.45C646.61 118.35 645.61 114 643.61 110.4C641.61 106.7 638.91 103.9 635.51 102C632.11 100 628.46 99 624.56 99C620.66 99 617.06 99.95 613.76 101.85C610.46 103.75 607.76 106.55 605.66 110.25C603.66 113.85 602.66 118.15 602.66 123.15C602.66 128.15 603.66 132.55 605.66 136.35C607.76 140.05 610.46 142.9 613.76 144.9C617.16 146.9 620.76 147.9 624.56 147.9C628.46 147.9 632.11 146.95 635.51 145.05C638.91 143.05 641.61 140.25 643.61 136.65C645.61 132.95 646.61 128.55 646.61 123.45ZM711.07 166.35C704.27 166.35 698.17 165.15 692.77 162.75C687.37 160.25 683.07 156.9 679.87 152.7C676.77 148.5 675.07 143.85 674.77 138.75H695.92C696.32 141.95 697.87 144.6 700.57 146.7C703.37 148.8 706.82 149.85 710.92 149.85C714.92 149.85 718.02 149.05 720.22 147.45C722.52 145.85 723.67 143.8 723.67 141.3C723.67 138.6 722.27 136.6 719.47 135.3C716.77 133.9 712.42 132.4 706.42 130.8C700.22 129.3 695.12 127.75 691.12 126.15C687.22 124.55 683.82 122.1 680.92 118.8C678.12 115.5 676.72 111.05 676.72 105.45C676.72 100.85 678.02 96.65 680.62 92.85C683.32 89.05 687.12 86.05 692.02 83.85C697.02 81.65 702.87 80.55 709.57 80.55C719.47 80.55 727.37 83.05 733.27 88.05C739.17 92.95 742.42 99.6 743.02 108H722.92C722.62 104.7 721.22 102.1 718.72 100.2C716.32 98.2 713.07 97.2 708.97 97.2C705.17 97.2 702.22 97.9 700.12 99.3C698.12 100.7 697.12 102.65 697.12 105.15C697.12 107.95 698.52 110.1 701.32 111.6C704.12 113 708.47 114.45 714.37 115.95C720.37 117.45 725.32 119 729.22 120.6C733.12 122.2 736.47 124.7 739.27 128.1C742.17 131.4 743.67 135.8 743.77 141.3C743.77 146.1 742.42 150.4 739.72 154.2C737.12 158 733.32 161 728.32 163.2C723.42 165.3 717.67 166.35 711.07 166.35ZM829.258 121.65C829.258 124.65 829.058 127.35 828.658 129.75H767.908C768.408 135.75 770.508 140.45 774.208 143.85C777.908 147.25 782.458 148.95 787.858 148.95C795.658 148.95 801.208 145.6 804.508 138.9H827.158C824.758 146.9 820.158 153.5 813.358 158.7C806.558 163.8 798.208 166.35 788.308 166.35C780.308 166.35 773.108 164.6 766.708 161.1C760.408 157.5 755.458 152.45 751.858 145.95C748.358 139.45 746.608 131.95 746.608 123.45C746.608 114.85 748.358 107.3 751.858 100.8C755.358 94.3 760.258 89.3 766.558 85.8C772.858 82.3 780.108 80.55 788.308 80.55C796.208 80.55 803.258 82.25 809.458 85.65C815.758 89.05 820.608 93.9 824.008 100.2C827.508 106.4 829.258 113.55 829.258 121.65ZM807.508 115.65C807.408 110.25 805.458 105.95 801.658 102.75C797.858 99.45 793.208 97.8 787.708 97.8C782.508 97.8 778.108 99.4 774.508 102.6C771.008 105.7 768.858 110.05 768.058 115.65H807.508Z" fill="white"/>
<defs>
<linearGradient id="paint0_linear_1_86" x1="77.28" y1="101.08" x2="-3.09586e-06" y2="182" gradientUnits="userSpaceOnUse">
<stop stop-color="#FF5F21"/>
<stop offset="1" stop-color="#FF9900"/>
</linearGradient>
</defs>
</svg>
