<svg width="250" height="250" viewBox="0 0 250 250" fill="none" xmlns="http://www.w3.org/2000/svg">
<rect width="250" height="250" rx="125" fill="url(#paint0_linear_1402_9112)"/>
<path fill-rule="evenodd" clip-rule="evenodd" d="M189.15 73.8085C190.375 74.3373 191.602 74.8673 192.829 75.3944C193.28 75.481 193.703 75.6709 194.075 75.9358C194.653 76.236 195.053 76.7256 195.296 77.2967C195.587 77.8738 195.682 78.5853 195.596 79.2785C195.644 81.6472 195.626 84.0289 195.607 86.4061C195.598 87.649 195.588 88.8907 195.588 90.1285V113.001V139.625V161.516V170.706C195.588 172.289 194.44 173.672 192.952 174.047C191.15 174.875 189.32 175.652 187.493 176.427L187.491 176.428L187.491 176.428L187.49 176.429L187.489 176.429L187.488 176.429L187.487 176.43L187.486 176.43L187.485 176.431C186.512 176.844 185.54 177.256 184.574 177.676C181.467 179.027 178.364 180.383 175.261 181.739C172.16 183.094 169.058 184.448 165.953 185.799C158.793 188.931 151.651 192.046 144.492 195.161C142.356 196.093 140.218 197.026 138.078 197.96C134.287 199.616 130.492 201.273 126.696 202.923C125.458 203.465 124.224 204.002 122.99 204.54C121.755 205.078 120.519 205.616 119.279 206.159C118.108 206.675 116.955 206.83 115.802 206.159C114.752 205.539 114.098 204.403 114.098 203.181V197.984V175.456V163.594L113.316 163.255C112.533 162.915 111.749 162.575 110.966 162.239C103.705 159.107 96.426 155.958 89.1474 152.809L89.1437 152.808C86.8278 151.804 84.5076 150.801 82.1873 149.797L82.165 149.787L82.1427 149.778L82.1292 149.772C80.1441 148.913 78.159 148.055 76.1766 147.196C75.8027 147.138 75.4275 147.007 75.0487 146.784C73.9989 146.165 73.3449 145.029 73.3449 143.807V137.646V110.832V95.8691C67.09 93.1369 60.818 90.4047 54.5459 87.6725L54.5343 87.6674C52.9595 86.979 51.3848 86.2949 49.8101 85.6108C48.2353 84.9267 46.6606 84.2426 45.0859 83.5542C44.5954 83.3391 44.1092 83.1283 43.6231 82.9174C43.1369 82.7066 42.6507 82.4958 42.1602 82.2807C41.9212 82.1735 41.481 81.9875 41.2609 81.8945C41.1795 81.8601 41.1282 81.8384 41.1283 81.8381C41.1285 81.8377 41.2776 81.8993 41.6809 82.0658L41.684 82.0671L41.6879 82.0687L41.8117 82.1199C40.5322 81.5847 39.5932 80.728 39.4066 79.2861C39.2345 78.0814 39.8024 76.3948 41.0415 75.8613C41.2137 75.7753 41.3685 75.7064 41.5406 75.6376C43.3218 74.8718 45.0987 74.1016 46.8755 73.3315C48.6526 72.5613 50.4296 71.7912 52.2109 71.0253C55.4464 69.6312 58.6777 68.2329 61.9089 66.8346L61.9102 66.834L61.9115 66.8334L61.9128 66.8329C65.1427 65.4352 68.3725 64.0374 71.6067 62.644C75.8432 60.8196 80.0737 58.9893 84.3019 57.1601L84.303 57.1596C87.254 55.8829 90.2038 54.6066 93.1537 53.3333C95.9674 52.1201 98.7811 50.9026 101.595 49.685C104.409 48.4673 107.223 47.2496 110.037 46.0363C110.584 45.7999 111.134 45.5613 111.685 45.3221C112.658 44.8994 113.637 44.4748 114.615 44.0571C114.778 43.9884 114.937 43.9197 115.096 43.851L115.097 43.8506C115.256 43.7818 115.415 43.7129 115.578 43.6441C115.656 43.6109 115.732 43.5772 115.808 43.5436L115.809 43.5436C116.325 43.3161 116.82 43.0978 117.42 43.1278C118.091 43.1622 118.659 43.3859 119.261 43.6441C122.239 44.9176 125.216 46.2084 128.193 47.4991C131.299 48.8411 134.409 50.1831 137.519 51.5251C140.63 52.8679 143.742 54.2107 146.849 55.5534C150.465 57.1116 154.076 58.6698 157.688 60.228C161.296 61.7849 164.904 63.3417 168.517 64.8985C171.501 66.1887 174.49 67.4789 177.479 68.769C180.471 70.0604 183.462 71.3517 186.45 72.643C187.344 73.0283 188.241 73.4158 189.14 73.8039L189.149 73.8078L189.15 73.8085ZM120.948 81.4157V82.3839V109.266V123.97C121.97 124.412 122.994 124.859 124.011 125.306C127.647 126.887 131.286 128.469 134.926 130.05L134.945 130.058C137.711 131.26 140.476 132.461 143.24 133.663C144.202 134.078 145.164 134.494 146.127 134.909C148.407 135.89 150.683 136.875 152.959 137.861C153.51 138.099 154.06 138.337 154.611 138.576V137.559C154.611 137.549 154.611 137.538 154.611 137.528V110.643V96.024C153.585 95.576 152.561 95.1326 151.531 94.6892L129.639 85.1892C127.325 84.1824 125.014 83.1799 122.704 82.1774C122.118 81.9235 121.533 81.6697 120.948 81.4157Z" fill="white"/>
<defs>
<linearGradient id="paint0_linear_1402_9112" x1="138" y1="105.5" x2="-5.52833e-06" y2="250" gradientUnits="userSpaceOnUse">
<stop stop-color="#FF5F21"/>
<stop offset="1" stop-color="#FF9900"/>
</linearGradient>
</defs>
</svg>
